<svg width="1940" height="343" viewBox="0 0 1940 343" fill="none" xmlns="http://www.w3.org/2000/svg">
<g clip-path="url(#clip0_443_857)">
<rect width="1940" height="343" fill="white"/>
<rect x="-3.8999" width="80.3148" height="20.5514" rx="3" fill="#E14646" fill-opacity="0.3"/>
<path d="M3.75297 14V3.81818H7.19332C7.98877 3.81818 8.64171 3.95407 9.15212 4.22585C9.66254 4.49432 10.0404 4.86387 10.2856 5.33452C10.5309 5.80516 10.6535 6.34044 10.6535 6.94034C10.6535 7.54025 10.5309 8.07221 10.2856 8.53622C10.0404 9.00024 9.6642 9.36482 9.15709 9.62997C8.64999 9.89181 8.00203 10.0227 7.2132 10.0227H4.42911V8.90909H7.17343C7.71699 8.90909 8.15449 8.82955 8.48593 8.67045C8.82068 8.51136 9.06263 8.28598 9.21178 7.99432C9.36424 7.69934 9.44047 7.34801 9.44047 6.94034C9.44047 6.53267 9.36424 6.17637 9.21178 5.87145C9.05932 5.56652 8.81571 5.3312 8.48096 5.16548C8.1462 4.99645 7.70373 4.91193 7.15354 4.91193H4.98593V14H3.75297ZM8.54559 9.42614L11.0513 14H9.61945L7.15354 9.42614H8.54559ZM15.6686 14.1591C14.9328 14.1591 14.2981 13.9967 13.7645 13.6719C13.2342 13.3438 12.8249 12.8864 12.5365 12.2997C12.2515 11.7098 12.109 11.0237 12.109 10.2415C12.109 9.45928 12.2515 8.76989 12.5365 8.1733C12.8249 7.57339 13.2259 7.10606 13.7397 6.77131C14.2567 6.43324 14.8599 6.2642 15.5493 6.2642C15.947 6.2642 16.3398 6.33049 16.7276 6.46307C17.1154 6.59564 17.4684 6.81108 17.7865 7.10938C18.1047 7.40436 18.3583 7.79545 18.5472 8.28267C18.7361 8.76989 18.8306 9.36979 18.8306 10.0824V10.5795H12.9442V9.56534H17.6374C17.6374 9.13447 17.5512 8.75 17.3789 8.41193C17.2098 8.07386 16.9679 7.80705 16.653 7.61151C16.3415 7.41596 15.9736 7.31818 15.5493 7.31818C15.082 7.31818 14.6776 7.43419 14.3362 7.66619C13.9982 7.89489 13.738 8.19318 13.5557 8.56108C13.3734 8.92898 13.2823 9.32339 13.2823 9.74432V10.4205C13.2823 10.9972 13.3817 11.486 13.5806 11.8871C13.7827 12.2848 14.0628 12.5881 14.4208 12.7969C14.7787 13.0024 15.1947 13.1051 15.6686 13.1051C15.9769 13.1051 16.2553 13.062 16.5039 12.9759C16.7558 12.8864 16.9728 12.7538 17.1551 12.5781C17.3374 12.3991 17.4783 12.1771 17.5777 11.9119L18.7112 12.2301C18.5919 12.6146 18.3914 12.9527 18.1097 13.2443C17.828 13.5327 17.48 13.758 17.0657 13.9205C16.6514 14.0795 16.1857 14.1591 15.6686 14.1591ZM23.4989 14.1591C22.8625 14.1591 22.3007 13.9983 21.8135 13.6768C21.3263 13.352 20.9451 12.8946 20.6701 12.3047C20.395 11.7114 20.2574 11.0104 20.2574 10.2017C20.2574 9.39962 20.395 8.7036 20.6701 8.11364C20.9451 7.52367 21.328 7.06794 21.8185 6.74645C22.309 6.42495 22.8758 6.2642 23.5188 6.2642C24.0159 6.2642 24.4087 6.34706 24.697 6.51278C24.9887 6.67519 25.2108 6.8608 25.3632 7.0696C25.519 7.27509 25.64 7.44413 25.7262 7.5767H25.8256V3.81818H26.9989V14H25.8654V12.8267H25.7262C25.64 12.9659 25.5174 13.1416 25.3583 13.3537C25.1992 13.5625 24.9721 13.7498 24.6772 13.9155C24.3822 14.0779 23.9894 14.1591 23.4989 14.1591ZM23.658 13.1051C24.1286 13.1051 24.5264 12.9825 24.8512 12.7372C25.176 12.4886 25.4229 12.1456 25.5919 11.7081C25.761 11.2673 25.8455 10.7585 25.8455 10.1818C25.8455 9.61174 25.7626 9.11293 25.5969 8.68537C25.4312 8.2545 25.1859 7.91974 24.8611 7.68111C24.5363 7.43916 24.1353 7.31818 23.658 7.31818C23.1608 7.31818 22.7465 7.44579 22.4151 7.70099C22.087 7.95289 21.84 8.29593 21.6743 8.73011C21.5119 9.16098 21.4307 9.64489 21.4307 10.1818C21.4307 10.7254 21.5136 11.2192 21.6793 11.6634C21.8483 12.1042 22.0969 12.4555 22.425 12.7173C22.7565 12.9759 23.1675 13.1051 23.658 13.1051ZM36.5692 6.36364V7.35795H32.6118V6.36364H36.5692ZM33.7652 4.53409H34.9385V11.8125C34.9385 12.1439 34.9866 12.3925 35.0827 12.5582C35.1821 12.7206 35.3081 12.83 35.4605 12.8864C35.6163 12.9394 35.7804 12.9659 35.9527 12.9659C36.082 12.9659 36.188 12.9593 36.2709 12.946C36.3538 12.9295 36.4201 12.9162 36.4698 12.9062L36.7084 13.9602C36.6289 13.9901 36.5178 14.0199 36.3753 14.0497C36.2328 14.0829 36.0522 14.0994 35.8334 14.0994C35.502 14.0994 35.1772 14.0282 34.859 13.8857C34.5441 13.7431 34.2823 13.526 34.0735 13.2344C33.868 12.9427 33.7652 12.5748 33.7652 12.1307V4.53409ZM40.5813 14.179C40.0974 14.179 39.6582 14.0878 39.2638 13.9055C38.8694 13.7199 38.5562 13.4531 38.3242 13.1051C38.0922 12.7538 37.9762 12.3295 37.9762 11.8324C37.9762 11.3949 38.0623 11.0402 38.2347 10.7685C38.407 10.4934 38.6374 10.2779 38.9257 10.1222C39.2141 9.96638 39.5323 9.85038 39.8803 9.77415C40.2316 9.6946 40.5846 9.63163 40.9392 9.58523C41.4032 9.52557 41.7794 9.48082 42.0678 9.45099C42.3594 9.41785 42.5716 9.36316 42.7041 9.28693C42.84 9.2107 42.908 9.07812 42.908 8.8892V8.84943C42.908 8.3589 42.7737 7.97775 42.5053 7.70597C42.2401 7.43419 41.8374 7.2983 41.2972 7.2983C40.7371 7.2983 40.2979 7.42093 39.9797 7.66619C39.6615 7.91146 39.4378 8.1733 39.3085 8.4517L38.1949 8.05398C38.3938 7.58996 38.6589 7.22869 38.9904 6.97017C39.3251 6.70833 39.6897 6.52604 40.0841 6.4233C40.4818 6.31723 40.8729 6.2642 41.2574 6.2642C41.5027 6.2642 41.7844 6.29403 42.1026 6.35369C42.4241 6.41004 42.734 6.5277 43.0323 6.70668C43.3339 6.88565 43.5841 7.15578 43.783 7.51705C43.9818 7.87831 44.0813 8.36222 44.0813 8.96875V14H42.908V12.9659H42.8483C42.7688 13.1316 42.6362 13.3089 42.4506 13.4979C42.265 13.6868 42.0181 13.8475 41.7098 13.9801C41.4016 14.1127 41.0254 14.179 40.5813 14.179ZM40.7603 13.125C41.2243 13.125 41.6154 13.0339 41.9335 12.8516C42.255 12.6693 42.497 12.4339 42.6594 12.1456C42.8251 11.8572 42.908 11.554 42.908 11.2358V10.1619C42.8583 10.2216 42.7489 10.2763 42.5799 10.326C42.4141 10.3724 42.2219 10.4138 42.0032 10.4503C41.7877 10.4834 41.5773 10.5133 41.3718 10.5398C41.1696 10.563 41.0055 10.5829 40.8796 10.5994C40.5746 10.6392 40.2896 10.7038 40.0245 10.7933C39.7626 10.8795 39.5505 11.0104 39.3881 11.1861C39.229 11.3584 39.1495 11.5937 39.1495 11.892C39.1495 12.2997 39.3003 12.608 39.6019 12.8168C39.9068 13.0223 40.2929 13.125 40.7603 13.125ZM49.3052 17.0227C48.7384 17.0227 48.2512 16.9498 47.8435 16.804C47.4359 16.6615 47.0961 16.4725 46.8244 16.2372C46.5559 16.0052 46.3421 15.7566 46.183 15.4915L47.1177 14.8352C47.2237 14.9744 47.358 15.1335 47.5204 15.3125C47.6828 15.4948 47.9048 15.6522 48.1866 15.7848C48.4716 15.9207 48.8445 15.9886 49.3052 15.9886C49.9217 15.9886 50.4304 15.8395 50.8315 15.5412C51.2325 15.2429 51.433 14.7756 51.433 14.1392V12.5881H51.3336C51.2474 12.7273 51.1248 12.8996 50.9657 13.1051C50.8099 13.3073 50.5845 13.4879 50.2896 13.647C49.9979 13.8028 49.6035 13.8807 49.1063 13.8807C48.4898 13.8807 47.9363 13.7348 47.4458 13.4432C46.9586 13.1515 46.5725 12.7273 46.2874 12.1705C46.0057 11.6136 45.8648 10.9375 45.8648 10.142C45.8648 9.35985 46.0024 8.67874 46.2775 8.09872C46.5526 7.51539 46.9354 7.06463 47.4259 6.74645C47.9164 6.42495 48.4832 6.2642 49.1262 6.2642C49.6234 6.2642 50.0178 6.34706 50.3094 6.51278C50.6044 6.67519 50.8298 6.8608 50.9856 7.0696C51.1447 7.27509 51.2673 7.44413 51.3535 7.5767H51.4728V6.36364H52.6063V14.2188C52.6063 14.875 52.4572 15.4086 52.1589 15.8196C51.8639 16.2339 51.4662 16.5372 50.9657 16.7294C50.4685 16.925 49.915 17.0227 49.3052 17.0227ZM49.2654 12.8267C49.736 12.8267 50.1338 12.719 50.4586 12.5036C50.7834 12.2881 51.0303 11.9782 51.1994 11.5739C51.3684 11.1695 51.4529 10.6856 51.4529 10.1222C51.4529 9.57197 51.37 9.08641 51.2043 8.66548C51.0386 8.24455 50.7933 7.91477 50.4685 7.67614C50.1437 7.4375 49.7427 7.31818 49.2654 7.31818C48.7682 7.31818 48.3539 7.44413 48.0225 7.69602C47.6944 7.94792 47.4475 8.28598 47.2817 8.71023C47.1193 9.13447 47.0381 9.60511 47.0381 10.1222C47.0381 10.6525 47.121 11.1214 47.2867 11.5291C47.4557 11.9335 47.7043 12.2517 48.0324 12.4837C48.3639 12.7124 48.7749 12.8267 49.2654 12.8267Z" fill="#37352F"/>
<path d="M-4 0H1944V343H-4V0Z" fill="#CCFFE2"/>
<path fill-rule="evenodd" clip-rule="evenodd" d="M1943.55 237.166V343H475.379C535.532 293.689 599.915 248.214 668.419 207.174C1082.63 -40.9782 1540.57 29.3675 1943.55 237.166Z" fill="#FFECEA"/>
<path fill-rule="evenodd" clip-rule="evenodd" d="M1373.87 169.08C1373.93 113.585 1408.92 58.5252 1467.21 46.2886C1518.96 35.4249 1554.8 83.747 1584.16 124.933C1611.76 163.654 1640.07 210.579 1611.16 248.223C1579.64 289.281 1518.29 294.69 1466.96 277.572C1415.17 260.296 1373.82 220.063 1373.87 169.08Z" fill="#0018A4"/>
<path fill-rule="evenodd" clip-rule="evenodd" d="M135.668 64.0355C166.613 63.0843 197.932 81.711 205.784 114.146C212.755 142.942 186.443 163.876 163.996 181.054C142.892 197.204 117.226 213.893 95.7253 198.369C72.2753 181.438 68.1762 147.165 76.8156 118.11C85.5343 88.7876 107.239 64.9093 135.668 64.0355Z" fill="white"/>
<rect x="-4" width="1944" height="100" fill="#0018A4"/>
<path d="M-73.5313 33.956H-79.3943V33.3H-61.4363V33.956H-67.2993V38.876H-61.4363V39.532H-67.2993V62H-67.9553V39.532H-72.8753V62H-73.5313V39.532H-79.3943V38.876H-73.5313V33.956ZM-67.9553 33.956H-72.8753V38.876H-67.9553V33.956ZM-62.8553 51.135C-62.8553 44.862 -57.7713 39.778 -51.4983 39.778C-46.4963 39.778 -42.2733 42.976 -40.7563 47.486L-54.0813 55.563C-53.3023 56.014 -52.4413 56.26 -51.4983 56.26C-49.4483 56.26 -47.6853 55.03 -46.8653 53.308L-46.2503 53.595C-47.1523 55.563 -49.1613 56.916 -51.4983 56.916C-52.6873 56.916 -53.7943 56.547 -54.6963 55.932L-59.1243 58.638C-57.1973 60.606 -54.4913 61.836 -51.4983 61.836C-47.2343 61.836 -43.5033 59.294 -41.7813 55.645L-41.2073 55.932C-43.0113 59.827 -46.9473 62.492 -51.4983 62.492C-57.7713 62.492 -62.8553 57.408 -62.8553 51.135ZM-62.1993 51.135C-62.1993 52.324 -61.9943 53.431 -61.6663 54.497L-57.2383 51.791C-57.2793 51.586 -57.2793 51.34 -57.2793 51.135C-57.2793 47.937 -54.6963 45.354 -51.4983 45.354C-50.3093 45.354 -49.1613 45.723 -48.2593 46.338L-43.8723 43.673C-45.7993 41.664 -48.5053 40.434 -51.4983 40.434C-57.4023 40.434 -62.1993 45.231 -62.1993 51.135ZM-61.4203 55.112C-60.9693 56.219 -60.3543 57.244 -59.5753 58.146L-55.2703 55.522C-56.1723 54.743 -56.8283 53.677 -57.1153 52.488L-61.4203 55.112ZM-56.6233 51.135V51.422L-48.8743 46.707C-49.6533 46.256 -50.5553 46.01 -51.4983 46.01C-54.3273 46.01 -56.6233 48.306 -56.6233 51.135ZM-56.5413 52.16C-56.2953 53.349 -55.5983 54.415 -54.6553 55.153L-46.4553 50.151C-46.7013 48.962 -47.3573 47.896 -48.3003 47.117L-56.5413 52.16ZM-47.6853 46.789C-46.7833 47.568 -46.1273 48.593 -45.8813 49.823L-41.5353 47.158C-41.9863 46.051 -42.6423 45.067 -43.3803 44.165L-47.6853 46.789ZM-27.898 45.846V46.502H-29.087C-31.588 46.502 -33.72 48.634 -33.72 51.135C-33.72 53.636 -31.588 55.768 -29.087 55.768H-27.898V56.424H-29.087C-31.957 56.424 -34.376 54.005 -34.376 51.135C-34.376 48.265 -31.957 45.846 -29.087 45.846H-27.898ZM-27.898 40.926H-29.087C-34.704 40.926 -39.296 45.518 -39.296 51.135C-39.296 56.752 -34.704 61.344 -29.087 61.344H-27.898V62H-29.087C-35.073 62 -39.952 57.121 -39.952 51.135C-39.952 45.149 -35.073 40.27 -29.087 40.27H-27.898V40.926ZM-24.429 62V31.25H-23.773V46.461C-22.871 44.124 -21.108 42.197 -18.853 41.09V31.25H-18.197V40.762C-17.049 40.311 -15.819 40.065 -14.507 40.065C-9.05402 40.065 -4.58502 44.534 -4.58502 49.987V62H-5.24102V49.987C-5.24102 44.903 -9.42302 40.721 -14.507 40.721C-15.819 40.721 -17.049 41.008 -18.197 41.5V47.691C-17.418 46.461 -16.065 45.641 -14.507 45.641C-12.129 45.641 -10.161 47.609 -10.161 49.987V62H-10.817V49.987C-10.817 47.978 -12.498 46.297 -14.507 46.297C-16.516 46.297 -18.197 47.978 -18.197 49.987V62H-18.853V41.828C-21.764 43.386 -23.773 46.461 -23.773 49.987V62H-24.429ZM-0.725894 62V40.27H-0.0698945V46.461C0.832106 44.124 2.59511 42.197 4.85011 41.09V40.27H5.50611V40.762C6.65411 40.311 7.88411 40.065 9.19611 40.065C14.6491 40.065 19.1181 44.534 19.1181 49.987V62H18.4621V49.987C18.4621 44.903 14.2801 40.721 9.19611 40.721C7.88411 40.721 6.65411 41.008 5.50611 41.5V47.691C6.28511 46.461 7.63811 45.641 9.19611 45.641C11.5741 45.641 13.5421 47.609 13.5421 49.987V62H12.8861V49.987C12.8861 47.978 11.2051 46.297 9.19611 46.297C7.18711 46.297 5.50611 47.978 5.50611 49.987V62H4.85011V41.828C1.93911 43.386 -0.0698945 46.461 -0.0698945 49.987V62H-0.725894ZM22.9772 62V40.27H23.6332V62H22.9772ZM29.2092 40.27V62H28.5532V40.27H29.2092ZM28.5532 38.138V31.25H29.2092V38.138H28.5532ZM23.6332 31.25V38.138H22.9772V31.25H23.6332ZM32.1984 51.135C32.1984 44.862 37.2824 39.778 43.5554 39.778C45.4004 39.778 47.1224 40.229 48.6804 41.008V40.27H49.3364V41.377C51.6324 42.648 53.3954 44.944 54.2564 47.322V40.27H54.9124V60.155C54.9124 66.428 49.8694 71.512 43.5554 71.512C39.6604 71.512 36.2164 69.503 34.1254 66.51L34.6994 66.182C36.6674 69.011 39.9064 70.856 43.5554 70.856C49.5414 70.856 54.2564 66.1 54.2564 60.155V54.907C53.4364 57.285 51.5914 59.663 49.2544 60.934C48.8444 63.722 46.5074 65.936 43.5554 65.936C41.7104 65.936 40.0294 65.034 38.9634 63.722L39.5374 63.394C40.4394 64.501 41.9564 65.28 43.5554 65.28C46.0154 65.28 48.0244 63.599 48.5574 61.344C47.0404 62.041 45.3184 62.492 43.5554 62.492C37.2824 62.492 32.1984 57.408 32.1984 51.135ZM32.8544 51.135C32.8544 57.039 37.6514 61.836 43.5554 61.836C45.4004 61.836 47.1224 61.385 48.6394 60.565C48.6804 60.278 48.6804 59.745 48.6804 59.212V53.841C47.6964 55.645 45.7694 56.916 43.5554 56.916C40.3574 56.916 37.7744 54.333 37.7744 51.135C37.7744 47.937 40.3574 45.354 43.5554 45.354C45.7694 45.354 47.6964 46.625 48.6804 48.47V41.746C47.1634 40.926 45.4004 40.434 43.5554 40.434C37.6514 40.434 32.8544 45.231 32.8544 51.135ZM38.4304 51.135C38.4304 53.964 40.7264 56.26 43.5554 56.26C46.4254 56.26 48.6804 53.964 48.6804 51.135C48.6804 48.306 46.4254 46.01 43.5554 46.01C40.7264 46.01 38.4304 48.306 38.4304 51.135ZM49.3364 42.115V60.155C52.0834 58.474 54.2564 55.071 54.2564 51.135C54.2564 47.199 52.0834 43.796 49.3364 42.115ZM69.1794 62.492C62.9064 62.492 57.8224 57.408 57.8224 51.135C57.8224 44.862 62.9064 39.778 69.1794 39.778C75.4524 39.778 80.5364 44.862 80.5364 51.135C80.5364 57.408 75.4524 62.492 69.1794 62.492ZM69.1794 61.836C75.0834 61.836 79.8804 57.039 79.8804 51.135C79.8804 45.231 75.0834 40.434 69.1794 40.434C63.2754 40.434 58.4784 45.231 58.4784 51.135C58.4784 57.039 63.2754 61.836 69.1794 61.836ZM69.1794 56.916C65.9814 56.916 63.3984 54.333 63.3984 51.135C63.3984 47.937 65.9814 45.354 69.1794 45.354C72.3774 45.354 74.9604 47.937 74.9604 51.135C74.9604 54.333 72.3774 56.916 69.1794 56.916ZM69.1794 56.26C72.0084 56.26 74.3044 53.964 74.3044 51.135C74.3044 48.306 72.0084 46.01 69.1794 46.01C66.3504 46.01 64.0544 48.306 64.0544 51.135C64.0544 53.964 66.3504 56.26 69.1794 56.26ZM105.41 62H104.754L98.8497 46.871V62H98.1937V39.532H93.2737V62H92.6177V33.3H101.761C107.009 33.3 111.191 37.482 111.191 42.73C111.191 46.912 109.1 49.372 106.681 50.889L110.986 62H110.33L106.148 51.217C104.959 51.914 103.278 52.529 101.884 52.939L105.41 62ZM104.508 45.313L106.435 50.274C108.649 48.88 110.535 46.584 110.535 42.73C110.535 37.81 106.681 33.956 101.761 33.956H98.8497V38.876H101.761C103.893 38.876 105.615 40.598 105.615 42.73C105.615 43.714 105.246 44.575 104.508 45.313ZM98.8497 39.532V46.871L100.408 46.543C103.606 45.846 104.959 44.493 104.959 42.73C104.959 40.926 103.565 39.532 101.761 39.532H98.8497ZM93.2737 33.956V38.876H98.1937V33.956H93.2737ZM105.902 50.602L104.016 45.764C102.786 46.707 101.351 47.035 99.7517 47.363L101.638 52.283C102.868 51.955 104.877 51.217 105.902 50.602ZM112.676 51.135C112.676 44.862 117.76 39.778 124.033 39.778C129.035 39.778 133.258 42.976 134.775 47.486L121.45 55.563C122.229 56.014 123.09 56.26 124.033 56.26C126.083 56.26 127.846 55.03 128.666 53.308L129.281 53.595C128.379 55.563 126.37 56.916 124.033 56.916C122.844 56.916 121.737 56.547 120.835 55.932L116.407 58.638C118.334 60.606 121.04 61.836 124.033 61.836C128.297 61.836 132.028 59.294 133.75 55.645L134.324 55.932C132.52 59.827 128.584 62.492 124.033 62.492C117.76 62.492 112.676 57.408 112.676 51.135ZM113.332 51.135C113.332 52.324 113.537 53.431 113.865 54.497L118.293 51.791C118.252 51.586 118.252 51.34 118.252 51.135C118.252 47.937 120.835 45.354 124.033 45.354C125.222 45.354 126.37 45.723 127.272 46.338L131.659 43.673C129.732 41.664 127.026 40.434 124.033 40.434C118.129 40.434 113.332 45.231 113.332 51.135ZM114.111 55.112C114.562 56.219 115.177 57.244 115.956 58.146L120.261 55.522C119.359 54.743 118.703 53.677 118.416 52.488L114.111 55.112ZM118.908 51.135V51.422L126.657 46.707C125.878 46.256 124.976 46.01 124.033 46.01C121.204 46.01 118.908 48.306 118.908 51.135ZM118.99 52.16C119.236 53.349 119.933 54.415 120.876 55.153L129.076 50.151C128.83 48.962 128.174 47.896 127.231 47.117L118.99 52.16ZM127.846 46.789C128.748 47.568 129.404 48.593 129.65 49.823L133.996 47.158C133.545 46.051 132.889 45.067 132.151 44.165L127.846 46.789ZM152.676 42.115V60.155C155.423 58.474 157.596 55.071 157.596 51.135C157.596 47.199 155.423 43.796 152.676 42.115ZM146.895 39.778C148.74 39.778 150.462 40.229 152.02 41.008V40.27H152.676V41.377C154.972 42.648 156.735 44.944 157.596 47.322V40.27H158.252V62H157.596V54.907C156.776 57.244 154.972 59.663 152.676 60.934V62H152.02V61.262C150.462 62.041 148.74 62.492 146.895 62.492C140.622 62.492 135.538 57.408 135.538 51.135C135.538 44.862 140.622 39.778 146.895 39.778ZM146.895 61.836C148.74 61.836 150.503 61.385 152.02 60.565V53.841C151.036 55.645 149.109 56.916 146.895 56.916C143.697 56.916 141.114 54.333 141.114 51.135C141.114 47.937 143.697 45.354 146.895 45.354C149.109 45.354 151.036 46.625 152.02 48.47V41.746C150.503 40.926 148.74 40.434 146.895 40.434C140.991 40.434 136.194 45.231 136.194 51.135C136.194 57.039 140.991 61.836 146.895 61.836ZM146.895 56.26C149.765 56.26 152.02 53.964 152.02 51.135C152.02 48.306 149.765 46.01 146.895 46.01C144.066 46.01 141.77 48.306 141.77 51.135C141.77 53.964 144.066 56.26 146.895 56.26ZM173.298 45.846V46.502H172.109C169.608 46.502 167.476 48.634 167.476 51.135C167.476 53.636 169.608 55.768 172.109 55.768H173.298V56.424H172.109C169.239 56.424 166.82 54.005 166.82 51.135C166.82 48.265 169.239 45.846 172.109 45.846H173.298ZM173.298 40.926H172.109C166.492 40.926 161.9 45.518 161.9 51.135C161.9 56.752 166.492 61.344 172.109 61.344H173.298V62H172.109C166.123 62 161.244 57.121 161.244 51.135C161.244 45.149 166.123 40.27 172.109 40.27H173.298V40.926ZM178.817 40.926H175.578V40.27H178.817V33.3H179.473V40.27H184.393V33.3H185.049V40.27H188.288V40.926H185.049V45.846H188.288V46.502H185.049V62H184.393V46.502H179.473V62H178.817V46.502H175.578V45.846H178.817V40.926ZM184.393 40.926H179.473V45.846H184.393V40.926ZM221.928 33.3V51.709C221.928 57.613 217.008 62.492 211.022 62.492C205.036 62.492 200.116 57.654 200.116 51.709V33.3H200.772V51.709C200.772 57.326 205.364 61.836 211.022 61.836C216.68 61.836 221.272 57.285 221.272 51.709V33.3H221.928ZM216.352 33.3V51.709C216.352 54.497 213.933 56.916 211.022 56.916C208.111 56.916 205.692 54.497 205.692 51.709V33.3H206.348V51.709C206.348 54.169 208.439 56.26 211.022 56.26C213.605 56.26 215.696 54.169 215.696 51.709V33.3H216.352ZM224.951 46.953C224.951 42.976 228.149 39.778 232.126 39.778C235.078 39.778 237.62 41.582 238.727 44.124L238.112 44.411C237.128 42.074 234.791 40.434 232.126 40.434C228.518 40.434 225.607 43.345 225.607 46.953C225.607 50.028 227.698 52.57 230.568 53.308L232.372 53.759C233.069 53.923 233.561 54.579 233.561 55.317C233.561 56.219 232.864 56.916 231.962 56.916C231.265 56.916 230.691 56.506 230.445 55.85L231.06 55.604C231.183 55.973 231.511 56.26 231.962 56.26C232.495 56.26 232.905 55.85 232.905 55.317C232.905 54.866 232.659 54.497 232.208 54.374L230.363 53.923C227.247 53.144 224.951 50.315 224.951 46.953ZM225.361 58.187L225.976 57.9C226.96 60.237 229.256 61.836 231.962 61.836C235.57 61.836 238.481 58.925 238.481 55.317C238.481 52.242 236.39 49.7 233.52 48.962L231.716 48.511C230.978 48.306 230.527 47.691 230.527 46.953C230.527 46.051 231.224 45.354 232.126 45.354C232.823 45.354 233.397 45.805 233.602 46.42L233.028 46.666C232.905 46.297 232.536 46.01 232.126 46.01C231.593 46.01 231.183 46.42 231.183 46.953C231.183 47.404 231.429 47.773 231.88 47.896L233.725 48.347C236.882 49.126 239.137 51.955 239.137 55.317C239.137 59.294 235.939 62.492 231.962 62.492C229.01 62.492 226.468 60.729 225.361 58.187ZM241.121 51.135C241.121 44.862 246.205 39.778 252.478 39.778C257.48 39.778 261.703 42.976 263.22 47.486L249.895 55.563C250.674 56.014 251.535 56.26 252.478 56.26C254.528 56.26 256.291 55.03 257.111 53.308L257.726 53.595C256.824 55.563 254.815 56.916 252.478 56.916C251.289 56.916 250.182 56.547 249.28 55.932L244.852 58.638C246.779 60.606 249.485 61.836 252.478 61.836C256.742 61.836 260.473 59.294 262.195 55.645L262.769 55.932C260.965 59.827 257.029 62.492 252.478 62.492C246.205 62.492 241.121 57.408 241.121 51.135ZM241.777 51.135C241.777 52.324 241.982 53.431 242.31 54.497L246.738 51.791C246.697 51.586 246.697 51.34 246.697 51.135C246.697 47.937 249.28 45.354 252.478 45.354C253.667 45.354 254.815 45.723 255.717 46.338L260.104 43.673C258.177 41.664 255.471 40.434 252.478 40.434C246.574 40.434 241.777 45.231 241.777 51.135ZM242.556 55.112C243.007 56.219 243.622 57.244 244.401 58.146L248.706 55.522C247.804 54.743 247.148 53.677 246.861 52.488L242.556 55.112ZM247.353 51.135V51.422L255.102 46.707C254.323 46.256 253.421 46.01 252.478 46.01C249.649 46.01 247.353 48.306 247.353 51.135ZM247.435 52.16C247.681 53.349 248.378 54.415 249.321 55.153L257.521 50.151C257.275 48.962 256.619 47.896 255.676 47.117L247.435 52.16ZM256.291 46.789C257.193 47.568 257.849 48.593 258.095 49.823L262.441 47.158C261.99 46.051 261.334 45.067 260.596 44.165L256.291 46.789ZM289.074 56.424H287.065C282.022 56.424 278.332 52.447 278.332 47.65C278.332 42.812 282.022 38.876 287.065 38.876H289.074V39.532H287.065C282.432 39.532 278.988 43.14 278.988 47.65C278.988 52.119 282.432 55.768 287.065 55.768H289.074V56.424ZM289.074 62H287.065C279.111 62 272.756 55.563 272.756 47.65C272.756 39.737 279.111 33.3 287.065 33.3H289.074V33.956H287.065C279.439 33.956 273.412 40.065 273.412 47.65C273.412 55.235 279.439 61.344 287.065 61.344H289.074V62ZM301.846 62.492C295.573 62.492 290.489 57.408 290.489 51.135C290.489 44.862 295.573 39.778 301.846 39.778C308.119 39.778 313.203 44.862 313.203 51.135C313.203 57.408 308.119 62.492 301.846 62.492ZM301.846 61.836C307.75 61.836 312.547 57.039 312.547 51.135C312.547 45.231 307.75 40.434 301.846 40.434C295.942 40.434 291.145 45.231 291.145 51.135C291.145 57.039 295.942 61.836 301.846 61.836ZM301.846 56.916C298.648 56.916 296.065 54.333 296.065 51.135C296.065 47.937 298.648 45.354 301.846 45.354C305.044 45.354 307.627 47.937 307.627 51.135C307.627 54.333 305.044 56.916 301.846 56.916ZM301.846 56.26C304.675 56.26 306.971 53.964 306.971 51.135C306.971 48.306 304.675 46.01 301.846 46.01C299.017 46.01 296.721 48.306 296.721 51.135C296.721 53.964 299.017 56.26 301.846 56.26ZM316.143 62V40.27H316.799V46.461C317.701 44.124 319.464 42.197 321.719 41.09V40.27H322.375V40.762C323.523 40.311 324.753 40.065 326.065 40.065C331.518 40.065 335.987 44.534 335.987 49.987V62H335.331V49.987C335.331 44.903 331.149 40.721 326.065 40.721C324.753 40.721 323.523 41.008 322.375 41.5V47.691C323.154 46.461 324.507 45.641 326.065 45.641C328.443 45.641 330.411 47.609 330.411 49.987V62H329.755V49.987C329.755 47.978 328.074 46.297 326.065 46.297C324.056 46.297 322.375 47.978 322.375 49.987V62H321.719V41.828C318.808 43.386 316.799 46.461 316.799 49.987V62H316.143ZM341.496 40.926H338.257V40.27H341.496V33.3H342.152V40.27H347.072V33.3H347.728V40.27H350.967V40.926H347.728V45.846H350.967V46.502H347.728V62H347.072V46.502H342.152V62H341.496V46.502H338.257V45.846H341.496V40.926ZM347.072 40.926H342.152V45.846H347.072V40.926ZM352.31 51.135C352.31 44.862 357.394 39.778 363.667 39.778C368.669 39.778 372.892 42.976 374.409 47.486L361.084 55.563C361.863 56.014 362.724 56.26 363.667 56.26C365.717 56.26 367.48 55.03 368.3 53.308L368.915 53.595C368.013 55.563 366.004 56.916 363.667 56.916C362.478 56.916 361.371 56.547 360.469 55.932L356.041 58.638C357.968 60.606 360.674 61.836 363.667 61.836C367.931 61.836 371.662 59.294 373.384 55.645L373.958 55.932C372.154 59.827 368.218 62.492 363.667 62.492C357.394 62.492 352.31 57.408 352.31 51.135ZM352.966 51.135C352.966 52.324 353.171 53.431 353.499 54.497L357.927 51.791C357.886 51.586 357.886 51.34 357.886 51.135C357.886 47.937 360.469 45.354 363.667 45.354C364.856 45.354 366.004 45.723 366.906 46.338L371.293 43.673C369.366 41.664 366.66 40.434 363.667 40.434C357.763 40.434 352.966 45.231 352.966 51.135ZM353.745 55.112C354.196 56.219 354.811 57.244 355.59 58.146L359.895 55.522C358.993 54.743 358.337 53.677 358.05 52.488L353.745 55.112ZM358.542 51.135V51.422L366.291 46.707C365.512 46.256 364.61 46.01 363.667 46.01C360.838 46.01 358.542 48.306 358.542 51.135ZM358.624 52.16C358.87 53.349 359.567 54.415 360.51 55.153L368.71 50.151C368.464 48.962 367.808 47.896 366.865 47.117L358.624 52.16ZM367.48 46.789C368.382 47.568 369.038 48.593 369.284 49.823L373.63 47.158C373.179 46.051 372.523 45.067 371.785 44.165L367.48 46.789ZM380.925 40.27L384.492 45.682L388.1 40.27H388.92L384.902 46.297L387.69 50.52L394.496 40.27H395.316L388.1 51.135L395.316 62H394.496L387.69 51.75L384.902 55.973L388.92 62H388.1L384.533 56.588L380.925 62H380.105L384.123 55.973L381.294 51.75L374.529 62H373.709L380.884 51.135L373.709 40.27H374.529L381.294 50.52L384.082 46.297L380.105 40.27H380.925ZM384.492 55.358L387.28 51.135L384.492 46.912L381.704 51.135L384.492 55.358ZM399.392 40.926H396.153V40.27H399.392V33.3H400.048V40.27H404.968V33.3H405.624V40.27H408.863V40.926H405.624V45.846H408.863V46.502H405.624V62H404.968V46.502H400.048V62H399.392V46.502H396.153V45.846H399.392V40.926ZM404.968 40.926H400.048V45.846H404.968V40.926ZM419.748 41.746C419.748 36.826 423.766 32.849 428.85 32.849C432.786 32.849 436.107 35.268 437.378 38.671L436.804 38.917C435.615 35.719 432.499 33.423 428.85 33.464C424.176 33.505 420.363 37.154 420.404 41.746C420.445 45.6 423.069 48.88 426.718 49.7L429.67 50.356C431.146 50.684 432.253 52.037 432.253 53.554C432.253 55.399 430.695 56.875 428.727 56.875C427.046 56.875 425.652 55.768 425.283 54.292L425.898 54.005C426.144 55.276 427.292 56.301 428.727 56.26C430.326 56.219 431.556 55.03 431.597 53.554C431.638 52.324 430.736 51.258 429.465 50.971L426.595 50.356C422.577 49.495 419.748 45.887 419.748 41.746ZM420.158 56.629L420.773 56.342C421.921 59.581 425.037 61.877 428.727 61.836C433.401 61.795 437.214 58.146 437.173 53.554C437.132 49.7 434.508 46.42 430.859 45.6L427.907 44.944C426.431 44.616 425.324 43.263 425.324 41.746C425.324 39.901 426.882 38.425 428.85 38.425C430.531 38.425 431.925 39.491 432.253 40.967L431.679 41.254C431.433 39.983 430.244 38.999 428.85 39.04C427.251 39.081 426.021 40.27 425.98 41.746C425.939 42.976 426.841 44.042 428.112 44.329L430.982 44.944C435 45.805 437.829 49.413 437.829 53.554C437.829 58.474 433.811 62.451 428.727 62.451C424.75 62.451 421.429 60.032 420.158 56.629ZM442.635 40.926H439.396V40.27H442.635V33.3H443.291V40.27H448.211V33.3H448.867V40.27H452.106V40.926H448.867V45.846H452.106V46.502H448.867V62H448.211V46.502H443.291V62H442.635V46.502H439.396V45.846H442.635V40.926ZM448.211 40.926H443.291V45.846H448.211V40.926ZM470.586 42.115V60.155C473.333 58.474 475.506 55.071 475.506 51.135C475.506 47.199 473.333 43.796 470.586 42.115ZM464.805 39.778C466.65 39.778 468.372 40.229 469.93 41.008V40.27H470.586V41.377C472.882 42.648 474.645 44.944 475.506 47.322V40.27H476.162V62H475.506V54.907C474.686 57.244 472.882 59.663 470.586 60.934V62H469.93V61.262C468.372 62.041 466.65 62.492 464.805 62.492C458.532 62.492 453.448 57.408 453.448 51.135C453.448 44.862 458.532 39.778 464.805 39.778ZM464.805 61.836C466.65 61.836 468.413 61.385 469.93 60.565V53.841C468.946 55.645 467.019 56.916 464.805 56.916C461.607 56.916 459.024 54.333 459.024 51.135C459.024 47.937 461.607 45.354 464.805 45.354C467.019 45.354 468.946 46.625 469.93 48.47V41.746C468.413 40.926 466.65 40.434 464.805 40.434C458.901 40.434 454.104 45.231 454.104 51.135C454.104 57.039 458.901 61.836 464.805 61.836ZM464.805 56.26C467.675 56.26 469.93 53.964 469.93 51.135C469.93 48.306 467.675 46.01 464.805 46.01C461.976 46.01 459.68 48.306 459.68 51.135C459.68 53.964 461.976 56.26 464.805 56.26ZM482.393 40.926H479.154V40.27H482.393V33.3H483.049V40.27H487.969V33.3H488.625V40.27H491.864V40.926H488.625V45.846H491.864V46.502H488.625V62H487.969V46.502H483.049V62H482.393V46.502H479.154V45.846H482.393V40.926ZM487.969 40.926H483.049V45.846H487.969V40.926ZM493.207 51.135C493.207 44.862 498.291 39.778 504.564 39.778C509.566 39.778 513.789 42.976 515.306 47.486L501.981 55.563C502.76 56.014 503.621 56.26 504.564 56.26C506.614 56.26 508.377 55.03 509.197 53.308L509.812 53.595C508.91 55.563 506.901 56.916 504.564 56.916C503.375 56.916 502.268 56.547 501.366 55.932L496.938 58.638C498.865 60.606 501.571 61.836 504.564 61.836C508.828 61.836 512.559 59.294 514.281 55.645L514.855 55.932C513.051 59.827 509.115 62.492 504.564 62.492C498.291 62.492 493.207 57.408 493.207 51.135ZM493.863 51.135C493.863 52.324 494.068 53.431 494.396 54.497L498.824 51.791C498.783 51.586 498.783 51.34 498.783 51.135C498.783 47.937 501.366 45.354 504.564 45.354C505.753 45.354 506.901 45.723 507.803 46.338L512.19 43.673C510.263 41.664 507.557 40.434 504.564 40.434C498.66 40.434 493.863 45.231 493.863 51.135ZM494.642 55.112C495.093 56.219 495.708 57.244 496.487 58.146L500.792 55.522C499.89 54.743 499.234 53.677 498.947 52.488L494.642 55.112ZM499.439 51.135V51.422L507.188 46.707C506.409 46.256 505.507 46.01 504.564 46.01C501.735 46.01 499.439 48.306 499.439 51.135ZM499.521 52.16C499.767 53.349 500.464 54.415 501.407 55.153L509.607 50.151C509.361 48.962 508.705 47.896 507.762 47.117L499.521 52.16ZM508.377 46.789C509.279 47.568 509.935 48.593 510.181 49.823L514.527 47.158C514.076 46.051 513.42 45.067 512.682 44.165L508.377 46.789ZM544.44 55.522L541.816 62H541.16L534.149 44.698L531.115 62H530.459L533.698 43.55L530.049 34.448L525.211 62H524.555L529.598 33.3H530.254L533.903 42.402L535.502 33.3H536.158L544.44 53.882L552.722 33.3H553.378L554.977 42.361L558.626 33.3H559.282L564.325 62H563.669L558.831 34.448L555.182 43.509L558.421 62H557.765L554.731 44.616L547.72 62H547.064L544.44 55.522ZM547.392 61.18L554.526 43.468L552.927 34.448L544.768 54.702L547.392 61.18ZM544.112 54.702L535.953 34.448L534.354 43.55L541.488 61.18L544.112 54.702ZM582.696 42.115V60.155C585.443 58.474 587.616 55.071 587.616 51.135C587.616 47.199 585.443 43.796 582.696 42.115ZM576.915 39.778C578.76 39.778 580.482 40.229 582.04 41.008V40.27H582.696V41.377C584.992 42.648 586.755 44.944 587.616 47.322V40.27H588.272V62H587.616V54.907C586.796 57.244 584.992 59.663 582.696 60.934V62H582.04V61.262C580.482 62.041 578.76 62.492 576.915 62.492C570.642 62.492 565.558 57.408 565.558 51.135C565.558 44.862 570.642 39.778 576.915 39.778ZM576.915 61.836C578.76 61.836 580.523 61.385 582.04 60.565V53.841C581.056 55.645 579.129 56.916 576.915 56.916C573.717 56.916 571.134 54.333 571.134 51.135C571.134 47.937 573.717 45.354 576.915 45.354C579.129 45.354 581.056 46.625 582.04 48.47V41.746C580.523 40.926 578.76 40.434 576.915 40.434C571.011 40.434 566.214 45.231 566.214 51.135C566.214 57.039 571.011 61.836 576.915 61.836ZM576.915 56.26C579.785 56.26 582.04 53.964 582.04 51.135C582.04 48.306 579.785 46.01 576.915 46.01C574.086 46.01 571.79 48.306 571.79 51.135C571.79 53.964 574.086 56.26 576.915 56.26ZM592.453 62V40.27H593.109V46.461C594.011 44.124 595.774 42.197 598.029 41.09V40.27H598.685V40.762C599.833 40.311 601.063 40.065 602.375 40.065C607.828 40.065 612.297 44.534 612.297 49.987V62H611.641V49.987C611.641 44.903 607.459 40.721 602.375 40.721C601.063 40.721 599.833 41.008 598.685 41.5V47.691C599.464 46.461 600.817 45.641 602.375 45.641C604.753 45.641 606.721 47.609 606.721 49.987V62H606.065V49.987C606.065 47.978 604.384 46.297 602.375 46.297C600.366 46.297 598.685 47.978 598.685 49.987V62H598.029V41.828C595.118 43.386 593.109 46.461 593.109 49.987V62H592.453ZM632.064 42.115V60.155C634.811 58.474 636.984 55.071 636.984 51.135C636.984 47.199 634.811 43.796 632.064 42.115ZM626.283 39.778C628.128 39.778 629.85 40.229 631.408 41.008V40.27H632.064V41.377C634.36 42.648 636.123 44.944 636.984 47.322V40.27H637.64V62H636.984V54.907C636.164 57.244 634.36 59.663 632.064 60.934V62H631.408V61.262C629.85 62.041 628.128 62.492 626.283 62.492C620.01 62.492 614.926 57.408 614.926 51.135C614.926 44.862 620.01 39.778 626.283 39.778ZM626.283 61.836C628.128 61.836 629.891 61.385 631.408 60.565V53.841C630.424 55.645 628.497 56.916 626.283 56.916C623.085 56.916 620.502 54.333 620.502 51.135C620.502 47.937 623.085 45.354 626.283 45.354C628.497 45.354 630.424 46.625 631.408 48.47V41.746C629.891 40.926 628.128 40.434 626.283 40.434C620.379 40.434 615.582 45.231 615.582 51.135C615.582 57.039 620.379 61.836 626.283 61.836ZM626.283 56.26C629.153 56.26 631.408 53.964 631.408 51.135C631.408 48.306 629.153 46.01 626.283 46.01C623.454 46.01 621.158 48.306 621.158 51.135C621.158 53.964 623.454 56.26 626.283 56.26ZM640.632 51.135C640.632 44.862 645.716 39.778 651.989 39.778C653.834 39.778 655.556 40.229 657.114 41.008V40.27H657.77V41.377C660.066 42.648 661.829 44.944 662.69 47.322V40.27H663.346V60.155C663.346 66.428 658.303 71.512 651.989 71.512C648.094 71.512 644.65 69.503 642.559 66.51L643.133 66.182C645.101 69.011 648.34 70.856 651.989 70.856C657.975 70.856 662.69 66.1 662.69 60.155V54.907C661.87 57.285 660.025 59.663 657.688 60.934C657.278 63.722 654.941 65.936 651.989 65.936C650.144 65.936 648.463 65.034 647.397 63.722L647.971 63.394C648.873 64.501 650.39 65.28 651.989 65.28C654.449 65.28 656.458 63.599 656.991 61.344C655.474 62.041 653.752 62.492 651.989 62.492C645.716 62.492 640.632 57.408 640.632 51.135ZM641.288 51.135C641.288 57.039 646.085 61.836 651.989 61.836C653.834 61.836 655.556 61.385 657.073 60.565C657.114 60.278 657.114 59.745 657.114 59.212V53.841C656.13 55.645 654.203 56.916 651.989 56.916C648.791 56.916 646.208 54.333 646.208 51.135C646.208 47.937 648.791 45.354 651.989 45.354C654.203 45.354 656.13 46.625 657.114 48.47V41.746C655.597 40.926 653.834 40.434 651.989 40.434C646.085 40.434 641.288 45.231 641.288 51.135ZM646.864 51.135C646.864 53.964 649.16 56.26 651.989 56.26C654.859 56.26 657.114 53.964 657.114 51.135C657.114 48.306 654.859 46.01 651.989 46.01C649.16 46.01 646.864 48.306 646.864 51.135ZM657.77 42.115V60.155C660.517 58.474 662.69 55.071 662.69 51.135C662.69 47.199 660.517 43.796 657.77 42.115ZM666.256 51.135C666.256 44.862 671.34 39.778 677.613 39.778C682.615 39.778 686.838 42.976 688.355 47.486L675.03 55.563C675.809 56.014 676.67 56.26 677.613 56.26C679.663 56.26 681.426 55.03 682.246 53.308L682.861 53.595C681.959 55.563 679.95 56.916 677.613 56.916C676.424 56.916 675.317 56.547 674.415 55.932L669.987 58.638C671.914 60.606 674.62 61.836 677.613 61.836C681.877 61.836 685.608 59.294 687.33 55.645L687.904 55.932C686.1 59.827 682.164 62.492 677.613 62.492C671.34 62.492 666.256 57.408 666.256 51.135ZM666.912 51.135C666.912 52.324 667.117 53.431 667.445 54.497L671.873 51.791C671.832 51.586 671.832 51.34 671.832 51.135C671.832 47.937 674.415 45.354 677.613 45.354C678.802 45.354 679.95 45.723 680.852 46.338L685.239 43.673C683.312 41.664 680.606 40.434 677.613 40.434C671.709 40.434 666.912 45.231 666.912 51.135ZM667.691 55.112C668.142 56.219 668.757 57.244 669.536 58.146L673.841 55.522C672.939 54.743 672.283 53.677 671.996 52.488L667.691 55.112ZM672.488 51.135V51.422L680.237 46.707C679.458 46.256 678.556 46.01 677.613 46.01C674.784 46.01 672.488 48.306 672.488 51.135ZM672.57 52.16C672.816 53.349 673.513 54.415 674.456 55.153L682.656 50.151C682.41 48.962 681.754 47.896 680.811 47.117L672.57 52.16ZM681.426 46.789C682.328 47.568 682.984 48.593 683.23 49.823L687.576 47.158C687.125 46.051 686.469 45.067 685.731 44.165L681.426 46.789ZM690.348 62V40.27H691.004V45.969C691.906 43.714 693.71 41.869 695.924 40.885V40.27H696.58V40.639C697.523 40.311 698.589 40.106 699.655 40.106C702.033 40.106 704.206 41.008 705.846 42.484C707.486 41.008 709.659 40.106 712.037 40.106C717.162 40.106 721.344 44.288 721.344 49.413V62H720.688V49.413C720.688 44.657 716.793 40.762 712.037 40.762C709.864 40.762 707.855 41.582 706.338 42.935C707.568 44.206 708.429 45.805 708.798 47.609C709.413 46.461 710.643 45.682 712.037 45.682C714.087 45.682 715.768 47.363 715.768 49.413V62H715.112V49.413C715.112 47.732 713.718 46.338 712.037 46.338C710.356 46.338 708.962 47.732 708.962 49.413V62H708.306V49.413C708.306 47.076 707.363 44.944 705.846 43.386C704.329 44.944 703.386 47.076 703.386 49.413V62H702.73V49.413C702.73 47.732 701.336 46.338 699.655 46.338C697.974 46.338 696.58 47.732 696.58 49.413V62H695.924V41.623C693.013 43.017 691.004 46.01 691.004 49.413V62H690.348ZM696.58 41.336V47.322C697.236 46.338 698.384 45.682 699.655 45.682C701.049 45.682 702.279 46.461 702.894 47.609C703.263 45.805 704.124 44.206 705.354 42.935C703.837 41.582 701.828 40.762 699.655 40.762C698.589 40.762 697.523 40.967 696.58 41.336ZM723.992 51.135C723.992 44.862 729.076 39.778 735.349 39.778C740.351 39.778 744.574 42.976 746.091 47.486L732.766 55.563C733.545 56.014 734.406 56.26 735.349 56.26C737.399 56.26 739.162 55.03 739.982 53.308L740.597 53.595C739.695 55.563 737.686 56.916 735.349 56.916C734.16 56.916 733.053 56.547 732.151 55.932L727.723 58.638C729.65 60.606 732.356 61.836 735.349 61.836C739.613 61.836 743.344 59.294 745.066 55.645L745.64 55.932C743.836 59.827 739.9 62.492 735.349 62.492C729.076 62.492 723.992 57.408 723.992 51.135ZM724.648 51.135C724.648 52.324 724.853 53.431 725.181 54.497L729.609 51.791C729.568 51.586 729.568 51.34 729.568 51.135C729.568 47.937 732.151 45.354 735.349 45.354C736.538 45.354 737.686 45.723 738.588 46.338L742.975 43.673C741.048 41.664 738.342 40.434 735.349 40.434C729.445 40.434 724.648 45.231 724.648 51.135ZM725.427 55.112C725.878 56.219 726.493 57.244 727.272 58.146L731.577 55.522C730.675 54.743 730.019 53.677 729.732 52.488L725.427 55.112ZM730.224 51.135V51.422L737.973 46.707C737.194 46.256 736.292 46.01 735.349 46.01C732.52 46.01 730.224 48.306 730.224 51.135ZM730.306 52.16C730.552 53.349 731.249 54.415 732.192 55.153L740.392 50.151C740.146 48.962 739.49 47.896 738.547 47.117L730.306 52.16ZM739.162 46.789C740.064 47.568 740.72 48.593 740.966 49.823L745.312 47.158C744.861 46.051 744.205 45.067 743.467 44.165L739.162 46.789ZM748.085 62V40.27H748.741V46.461C749.643 44.124 751.406 42.197 753.661 41.09V40.27H754.317V40.762C755.465 40.311 756.695 40.065 758.007 40.065C763.46 40.065 767.929 44.534 767.929 49.987V62H767.273V49.987C767.273 44.903 763.091 40.721 758.007 40.721C756.695 40.721 755.465 41.008 754.317 41.5V47.691C755.096 46.461 756.449 45.641 758.007 45.641C760.385 45.641 762.353 47.609 762.353 49.987V62H761.697V49.987C761.697 47.978 760.016 46.297 758.007 46.297C755.998 46.297 754.317 47.978 754.317 49.987V62H753.661V41.828C750.75 43.386 748.741 46.461 748.741 49.987V62H748.085ZM773.437 40.926H770.198V40.27H773.437V33.3H774.093V40.27H779.013V33.3H779.669V40.27H782.908V40.926H779.669V45.846H782.908V46.502H779.669V62H779.013V46.502H774.093V62H773.437V46.502H770.198V45.846H773.437V40.926ZM779.013 40.926H774.093V45.846H779.013V40.926ZM795.023 62V33.3H803.059C808.266 33.3 812.489 37.523 812.489 42.73C812.489 44.534 811.997 46.215 811.095 47.65C811.997 49.044 812.489 50.766 812.489 52.57C812.489 57.777 808.266 62 803.059 62H795.023ZM795.679 61.344H800.599V56.424H795.679V61.344ZM795.679 55.768H800.599V49.372H795.679V55.768ZM795.679 48.716H800.599V46.584H795.679V48.716ZM795.679 45.928H800.599V39.532H795.679V45.928ZM795.679 38.876H800.599V33.956H795.679V38.876ZM801.255 61.344H803.059C807.897 61.344 811.833 57.408 811.833 52.57C811.833 50.725 811.259 49.044 810.316 47.65C811.259 46.256 811.833 44.575 811.833 42.73C811.833 37.892 807.897 33.956 803.059 33.956H801.255V38.876H803.059C805.191 38.876 806.913 40.598 806.913 42.73C806.913 44.862 805.191 46.584 803.059 46.584H801.255V48.716H803.059C805.191 48.716 806.913 50.438 806.913 52.57C806.913 54.702 805.191 56.424 803.059 56.424H801.255V61.344ZM801.255 55.768H803.059C804.822 55.768 806.257 54.333 806.257 52.57C806.257 50.807 804.822 49.372 803.059 49.372H801.255V55.768ZM801.255 45.928H803.059C804.822 45.928 806.257 44.493 806.257 42.73C806.257 40.967 804.822 39.532 803.059 39.532H801.255V45.928ZM826.158 62.492C819.885 62.492 814.801 57.408 814.801 51.135C814.801 44.862 819.885 39.778 826.158 39.778C832.431 39.778 837.515 44.862 837.515 51.135C837.515 57.408 832.431 62.492 826.158 62.492ZM826.158 61.836C832.062 61.836 836.859 57.039 836.859 51.135C836.859 45.231 832.062 40.434 826.158 40.434C820.254 40.434 815.457 45.231 815.457 51.135C815.457 57.039 820.254 61.836 826.158 61.836ZM826.158 56.916C822.96 56.916 820.377 54.333 820.377 51.135C820.377 47.937 822.96 45.354 826.158 45.354C829.356 45.354 831.939 47.937 831.939 51.135C831.939 54.333 829.356 56.916 826.158 56.916ZM826.158 56.26C828.987 56.26 831.283 53.964 831.283 51.135C831.283 48.306 828.987 46.01 826.158 46.01C823.329 46.01 821.033 48.306 821.033 51.135C821.033 53.964 823.329 56.26 826.158 56.26ZM840.455 62V40.27H841.111V62H840.455ZM846.687 40.27V62H846.031V40.27H846.687ZM846.031 38.138V31.25H846.687V38.138H846.031ZM841.111 31.25V38.138H840.455V31.25H841.111ZM851.521 31.25V62H850.865V31.25H851.521ZM857.097 31.25V62H856.441V31.25H857.097ZM860.045 51.135C860.045 44.862 865.129 39.778 871.402 39.778C876.404 39.778 880.627 42.976 882.144 47.486L868.819 55.563C869.598 56.014 870.459 56.26 871.402 56.26C873.452 56.26 875.215 55.03 876.035 53.308L876.65 53.595C875.748 55.563 873.739 56.916 871.402 56.916C870.213 56.916 869.106 56.547 868.204 55.932L863.776 58.638C865.703 60.606 868.409 61.836 871.402 61.836C875.666 61.836 879.397 59.294 881.119 55.645L881.693 55.932C879.889 59.827 875.953 62.492 871.402 62.492C865.129 62.492 860.045 57.408 860.045 51.135ZM860.701 51.135C860.701 52.324 860.906 53.431 861.234 54.497L865.662 51.791C865.621 51.586 865.621 51.34 865.621 51.135C865.621 47.937 868.204 45.354 871.402 45.354C872.591 45.354 873.739 45.723 874.641 46.338L879.028 43.673C877.101 41.664 874.395 40.434 871.402 40.434C865.498 40.434 860.701 45.231 860.701 51.135ZM861.48 55.112C861.931 56.219 862.546 57.244 863.325 58.146L867.63 55.522C866.728 54.743 866.072 53.677 865.785 52.488L861.48 55.112ZM866.277 51.135V51.422L874.026 46.707C873.247 46.256 872.345 46.01 871.402 46.01C868.573 46.01 866.277 48.306 866.277 51.135ZM866.359 52.16C866.605 53.349 867.302 54.415 868.245 55.153L876.445 50.151C876.199 48.962 875.543 47.896 874.6 47.117L866.359 52.16ZM875.215 46.789C876.117 47.568 876.773 48.593 877.019 49.823L881.365 47.158C880.914 46.051 880.258 45.067 879.52 44.165L875.215 46.789ZM889.713 62V42.689C887.499 44.042 884.793 46.83 884.793 51.709V62H884.137V40.27H884.793V47.732C885.818 44.903 887.417 43.304 889.713 41.951V40.27H890.369V41.582C892.009 40.762 893.772 40.352 895.494 40.352V41.008C893.772 41.008 891.968 41.459 890.369 42.32V49.044C891.312 47.199 893.28 45.928 895.494 45.928V46.584C892.624 46.584 890.369 48.88 890.369 51.709V62H889.713ZM913.324 39.532V45.928H916.235C918.039 45.928 919.433 44.534 919.433 42.73C919.433 40.926 918.039 39.532 916.235 39.532H913.324ZM913.324 38.876H916.235C918.367 38.876 920.089 40.598 920.089 42.73C920.089 44.862 918.367 46.584 916.235 46.584H913.324V51.504H916.235C921.155 51.504 925.009 47.65 925.009 42.73C925.009 37.81 921.155 33.956 916.235 33.956H913.324V38.876ZM907.748 52.16V62H907.092V33.3H916.235C921.483 33.3 925.665 37.482 925.665 42.73C925.665 47.978 921.483 52.16 916.235 52.16H913.324V62H912.668V52.16H907.748ZM907.748 39.532V45.928H912.668V39.532H907.748ZM912.668 33.956H907.748V38.876H912.668V33.956ZM912.668 46.584H907.748V51.504H912.668V46.584ZM929.117 31.25V62H928.461V31.25H929.117ZM934.693 31.25V62H934.037V31.25H934.693ZM954.779 42.115V60.155C957.526 58.474 959.699 55.071 959.699 51.135C959.699 47.199 957.526 43.796 954.779 42.115ZM948.998 39.778C950.843 39.778 952.565 40.229 954.123 41.008V40.27H954.779V41.377C957.075 42.648 958.838 44.944 959.699 47.322V40.27H960.355V62H959.699V54.907C958.879 57.244 957.075 59.663 954.779 60.934V62H954.123V61.262C952.565 62.041 950.843 62.492 948.998 62.492C942.725 62.492 937.641 57.408 937.641 51.135C937.641 44.862 942.725 39.778 948.998 39.778ZM948.998 61.836C950.843 61.836 952.606 61.385 954.123 60.565V53.841C953.139 55.645 951.212 56.916 948.998 56.916C945.8 56.916 943.217 54.333 943.217 51.135C943.217 47.937 945.8 45.354 948.998 45.354C951.212 45.354 953.139 46.625 954.123 48.47V41.746C952.606 40.926 950.843 40.434 948.998 40.434C943.094 40.434 938.297 45.231 938.297 51.135C938.297 57.039 943.094 61.836 948.998 61.836ZM948.998 56.26C951.868 56.26 954.123 53.964 954.123 51.135C954.123 48.306 951.868 46.01 948.998 46.01C946.169 46.01 943.873 48.306 943.873 51.135C943.873 53.964 946.169 56.26 948.998 56.26ZM966.586 40.926H963.347V40.27H966.586V33.3H967.242V40.27H972.162V33.3H972.818V40.27H976.057V40.926H972.818V45.846H976.057V46.502H972.818V62H972.162V46.502H967.242V62H966.586V46.502H963.347V45.846H966.586V40.926ZM972.162 40.926H967.242V45.846H972.162V40.926ZM977.4 51.135C977.4 44.862 982.484 39.778 988.757 39.778C993.759 39.778 997.982 42.976 999.499 47.486L986.174 55.563C986.953 56.014 987.814 56.26 988.757 56.26C990.807 56.26 992.57 55.03 993.39 53.308L994.005 53.595C993.103 55.563 991.094 56.916 988.757 56.916C987.568 56.916 986.461 56.547 985.559 55.932L981.131 58.638C983.058 60.606 985.764 61.836 988.757 61.836C993.021 61.836 996.752 59.294 998.474 55.645L999.048 55.932C997.244 59.827 993.308 62.492 988.757 62.492C982.484 62.492 977.4 57.408 977.4 51.135ZM978.056 51.135C978.056 52.324 978.261 53.431 978.589 54.497L983.017 51.791C982.976 51.586 982.976 51.34 982.976 51.135C982.976 47.937 985.559 45.354 988.757 45.354C989.946 45.354 991.094 45.723 991.996 46.338L996.383 43.673C994.456 41.664 991.75 40.434 988.757 40.434C982.853 40.434 978.056 45.231 978.056 51.135ZM978.835 55.112C979.286 56.219 979.901 57.244 980.68 58.146L984.985 55.522C984.083 54.743 983.427 53.677 983.14 52.488L978.835 55.112ZM983.632 51.135V51.422L991.381 46.707C990.602 46.256 989.7 46.01 988.757 46.01C985.928 46.01 983.632 48.306 983.632 51.135ZM983.714 52.16C983.96 53.349 984.657 54.415 985.6 55.153L993.8 50.151C993.554 48.962 992.898 47.896 991.955 47.117L983.714 52.16ZM992.57 46.789C993.472 47.568 994.128 48.593 994.374 49.823L998.72 47.158C998.269 46.051 997.613 45.067 996.875 44.165L992.57 46.789ZM1022.3 33.956H1016.43V33.3H1034.39V33.956H1028.53V38.876H1034.39V39.532H1028.53V62H1027.87V39.532H1022.95V62H1022.3V39.532H1016.43V38.876H1022.3V33.956ZM1027.87 33.956H1022.95V38.876H1027.87V33.956ZM1032.97 51.135C1032.97 44.862 1038.06 39.778 1044.33 39.778C1049.33 39.778 1053.56 42.976 1055.07 47.486L1041.75 55.563C1042.53 56.014 1043.39 56.26 1044.33 56.26C1046.38 56.26 1048.14 55.03 1048.96 53.308L1049.58 53.595C1048.68 55.563 1046.67 56.916 1044.33 56.916C1043.14 56.916 1042.03 56.547 1041.13 55.932L1036.7 58.638C1038.63 60.606 1041.34 61.836 1044.33 61.836C1048.59 61.836 1052.33 59.294 1054.05 55.645L1054.62 55.932C1052.82 59.827 1048.88 62.492 1044.33 62.492C1038.06 62.492 1032.97 57.408 1032.97 51.135ZM1033.63 51.135C1033.63 52.324 1033.83 53.431 1034.16 54.497L1038.59 51.791C1038.55 51.586 1038.55 51.34 1038.55 51.135C1038.55 47.937 1041.13 45.354 1044.33 45.354C1045.52 45.354 1046.67 45.723 1047.57 46.338L1051.96 43.673C1050.03 41.664 1047.32 40.434 1044.33 40.434C1038.43 40.434 1033.63 45.231 1033.63 51.135ZM1034.41 55.112C1034.86 56.219 1035.47 57.244 1036.25 58.146L1040.56 55.522C1039.66 54.743 1039 53.677 1038.71 52.488L1034.41 55.112ZM1039.21 51.135V51.422L1046.95 46.707C1046.18 46.256 1045.27 46.01 1044.33 46.01C1041.5 46.01 1039.21 48.306 1039.21 51.135ZM1039.29 52.16C1039.53 53.349 1040.23 54.415 1041.17 55.153L1049.37 50.151C1049.13 48.962 1048.47 47.896 1047.53 47.117L1039.29 52.16ZM1048.14 46.789C1049.05 47.568 1049.7 48.593 1049.95 49.823L1054.29 47.158C1053.84 46.051 1053.19 45.067 1052.45 44.165L1048.14 46.789ZM1067.93 45.846V46.502H1066.74C1064.24 46.502 1062.11 48.634 1062.11 51.135C1062.11 53.636 1064.24 55.768 1066.74 55.768H1067.93V56.424H1066.74C1063.87 56.424 1061.45 54.005 1061.45 51.135C1061.45 48.265 1063.87 45.846 1066.74 45.846H1067.93ZM1067.93 40.926H1066.74C1061.13 40.926 1056.53 45.518 1056.53 51.135C1056.53 56.752 1061.13 61.344 1066.74 61.344H1067.93V62H1066.74C1060.76 62 1055.88 57.121 1055.88 51.135C1055.88 45.149 1060.76 40.27 1066.74 40.27H1067.93V40.926ZM1071.4 62V31.25H1072.06V46.461C1072.96 44.124 1074.72 42.197 1076.98 41.09V31.25H1077.63V40.762C1078.78 40.311 1080.01 40.065 1081.32 40.065C1086.78 40.065 1091.24 44.534 1091.24 49.987V62H1090.59V49.987C1090.59 44.903 1086.41 40.721 1081.32 40.721C1080.01 40.721 1078.78 41.008 1077.63 41.5V47.691C1078.41 46.461 1079.76 45.641 1081.32 45.641C1083.7 45.641 1085.67 47.609 1085.67 49.987V62H1085.01V49.987C1085.01 47.978 1083.33 46.297 1081.32 46.297C1079.31 46.297 1077.63 47.978 1077.63 49.987V62H1076.98V41.828C1074.07 43.386 1072.06 46.461 1072.06 49.987V62H1071.4ZM1095.1 62V40.27H1095.76V46.461C1096.66 44.124 1098.42 42.197 1100.68 41.09V40.27H1101.34V40.762C1102.48 40.311 1103.71 40.065 1105.03 40.065C1110.48 40.065 1114.95 44.534 1114.95 49.987V62H1114.29V49.987C1114.29 44.903 1110.11 40.721 1105.03 40.721C1103.71 40.721 1102.48 41.008 1101.34 41.5V47.691C1102.11 46.461 1103.47 45.641 1105.03 45.641C1107.4 45.641 1109.37 47.609 1109.37 49.987V62H1108.72V49.987C1108.72 47.978 1107.03 46.297 1105.03 46.297C1103.02 46.297 1101.34 47.978 1101.34 49.987V62H1100.68V41.828C1097.77 43.386 1095.76 46.461 1095.76 49.987V62H1095.1ZM1118.81 62V40.27H1119.46V62H1118.81ZM1125.04 40.27V62H1124.38V40.27H1125.04ZM1124.38 38.138V31.25H1125.04V38.138H1124.38ZM1119.46 31.25V38.138H1118.81V31.25H1119.46ZM1128.03 51.135C1128.03 44.862 1133.11 39.778 1139.38 39.778C1141.23 39.778 1142.95 40.229 1144.51 41.008V40.27H1145.17V41.377C1147.46 42.648 1149.22 44.944 1150.09 47.322V40.27H1150.74V60.155C1150.74 66.428 1145.7 71.512 1139.38 71.512C1135.49 71.512 1132.05 69.503 1129.95 66.51L1130.53 66.182C1132.5 69.011 1135.74 70.856 1139.38 70.856C1145.37 70.856 1150.09 66.1 1150.09 60.155V54.907C1149.27 57.285 1147.42 59.663 1145.08 60.934C1144.67 63.722 1142.34 65.936 1139.38 65.936C1137.54 65.936 1135.86 65.034 1134.79 63.722L1135.37 63.394C1136.27 64.501 1137.79 65.28 1139.38 65.28C1141.84 65.28 1143.85 63.599 1144.39 61.344C1142.87 62.041 1141.15 62.492 1139.38 62.492C1133.11 62.492 1128.03 57.408 1128.03 51.135ZM1128.68 51.135C1128.68 57.039 1133.48 61.836 1139.38 61.836C1141.23 61.836 1142.95 61.385 1144.47 60.565C1144.51 60.278 1144.51 59.745 1144.51 59.212V53.841C1143.53 55.645 1141.6 56.916 1139.38 56.916C1136.19 56.916 1133.6 54.333 1133.6 51.135C1133.6 47.937 1136.19 45.354 1139.38 45.354C1141.6 45.354 1143.53 46.625 1144.51 48.47V41.746C1142.99 40.926 1141.23 40.434 1139.38 40.434C1133.48 40.434 1128.68 45.231 1128.68 51.135ZM1134.26 51.135C1134.26 53.964 1136.56 56.26 1139.38 56.26C1142.25 56.26 1144.51 53.964 1144.51 51.135C1144.51 48.306 1142.25 46.01 1139.38 46.01C1136.56 46.01 1134.26 48.306 1134.26 51.135ZM1145.17 42.115V60.155C1147.91 58.474 1150.09 55.071 1150.09 51.135C1150.09 47.199 1147.91 43.796 1145.17 42.115ZM1165.01 62.492C1158.74 62.492 1153.65 57.408 1153.65 51.135C1153.65 44.862 1158.74 39.778 1165.01 39.778C1171.28 39.778 1176.37 44.862 1176.37 51.135C1176.37 57.408 1171.28 62.492 1165.01 62.492ZM1165.01 61.836C1170.91 61.836 1175.71 57.039 1175.71 51.135C1175.71 45.231 1170.91 40.434 1165.01 40.434C1159.1 40.434 1154.31 45.231 1154.31 51.135C1154.31 57.039 1159.1 61.836 1165.01 61.836ZM1165.01 56.916C1161.81 56.916 1159.23 54.333 1159.23 51.135C1159.23 47.937 1161.81 45.354 1165.01 45.354C1168.21 45.354 1170.79 47.937 1170.79 51.135C1170.79 54.333 1168.21 56.916 1165.01 56.916ZM1165.01 56.26C1167.84 56.26 1170.13 53.964 1170.13 51.135C1170.13 48.306 1167.84 46.01 1165.01 46.01C1162.18 46.01 1159.88 48.306 1159.88 51.135C1159.88 53.964 1162.18 56.26 1165.01 56.26ZM1201.24 62H1200.58L1194.68 46.871V62H1194.02V39.532H1189.1V62H1188.45V33.3H1197.59C1202.84 33.3 1207.02 37.482 1207.02 42.73C1207.02 46.912 1204.93 49.372 1202.51 50.889L1206.81 62H1206.16L1201.98 51.217C1200.79 51.914 1199.11 52.529 1197.71 52.939L1201.24 62ZM1200.34 45.313L1202.26 50.274C1204.48 48.88 1206.36 46.584 1206.36 42.73C1206.36 37.81 1202.51 33.956 1197.59 33.956H1194.68V38.876H1197.59C1199.72 38.876 1201.44 40.598 1201.44 42.73C1201.44 43.714 1201.07 44.575 1200.34 45.313ZM1194.68 39.532V46.871L1196.24 46.543C1199.43 45.846 1200.79 44.493 1200.79 42.73C1200.79 40.926 1199.39 39.532 1197.59 39.532H1194.68ZM1189.1 33.956V38.876H1194.02V33.956H1189.1ZM1201.73 50.602L1199.84 45.764C1198.61 46.707 1197.18 47.035 1195.58 47.363L1197.47 52.283C1198.7 51.955 1200.71 51.217 1201.73 50.602ZM1208.51 51.135C1208.51 44.862 1213.59 39.778 1219.86 39.778C1224.86 39.778 1229.09 42.976 1230.6 47.486L1217.28 55.563C1218.06 56.014 1218.92 56.26 1219.86 56.26C1221.91 56.26 1223.68 55.03 1224.5 53.308L1225.11 53.595C1224.21 55.563 1222.2 56.916 1219.86 56.916C1218.67 56.916 1217.57 56.547 1216.66 55.932L1212.24 58.638C1214.16 60.606 1216.87 61.836 1219.86 61.836C1224.13 61.836 1227.86 59.294 1229.58 55.645L1230.15 55.932C1228.35 59.827 1224.41 62.492 1219.86 62.492C1213.59 62.492 1208.51 57.408 1208.51 51.135ZM1209.16 51.135C1209.16 52.324 1209.37 53.431 1209.69 54.497L1214.12 51.791C1214.08 51.586 1214.08 51.34 1214.08 51.135C1214.08 47.937 1216.66 45.354 1219.86 45.354C1221.05 45.354 1222.2 45.723 1223.1 46.338L1227.49 43.673C1225.56 41.664 1222.86 40.434 1219.86 40.434C1213.96 40.434 1209.16 45.231 1209.16 51.135ZM1209.94 55.112C1210.39 56.219 1211.01 57.244 1211.79 58.146L1216.09 55.522C1215.19 54.743 1214.53 53.677 1214.25 52.488L1209.94 55.112ZM1214.74 51.135V51.422L1222.49 46.707C1221.71 46.256 1220.81 46.01 1219.86 46.01C1217.03 46.01 1214.74 48.306 1214.74 51.135ZM1214.82 52.16C1215.07 53.349 1215.76 54.415 1216.71 55.153L1224.91 50.151C1224.66 48.962 1224 47.896 1223.06 47.117L1214.82 52.16ZM1223.68 46.789C1224.58 47.568 1225.23 48.593 1225.48 49.823L1229.83 47.158C1229.37 46.051 1228.72 45.067 1227.98 44.165L1223.68 46.789ZM1248.51 42.115V60.155C1251.25 58.474 1253.43 55.071 1253.43 51.135C1253.43 47.199 1251.25 43.796 1248.51 42.115ZM1242.72 39.778C1244.57 39.778 1246.29 40.229 1247.85 41.008V40.27H1248.51V41.377C1250.8 42.648 1252.56 44.944 1253.43 47.322V40.27H1254.08V62H1253.43V54.907C1252.61 57.244 1250.8 59.663 1248.51 60.934V62H1247.85V61.262C1246.29 62.041 1244.57 62.492 1242.72 62.492C1236.45 62.492 1231.37 57.408 1231.37 51.135C1231.37 44.862 1236.45 39.778 1242.72 39.778ZM1242.72 61.836C1244.57 61.836 1246.33 61.385 1247.85 60.565V53.841C1246.87 55.645 1244.94 56.916 1242.72 56.916C1239.53 56.916 1236.94 54.333 1236.94 51.135C1236.94 47.937 1239.53 45.354 1242.72 45.354C1244.94 45.354 1246.87 46.625 1247.85 48.47V41.746C1246.33 40.926 1244.57 40.434 1242.72 40.434C1236.82 40.434 1232.02 45.231 1232.02 51.135C1232.02 57.039 1236.82 61.836 1242.72 61.836ZM1242.72 56.26C1245.59 56.26 1247.85 53.964 1247.85 51.135C1247.85 48.306 1245.59 46.01 1242.72 46.01C1239.9 46.01 1237.6 48.306 1237.6 51.135C1237.6 53.964 1239.9 56.26 1242.72 56.26ZM1269.13 45.846V46.502H1267.94C1265.44 46.502 1263.31 48.634 1263.31 51.135C1263.31 53.636 1265.44 55.768 1267.94 55.768H1269.13V56.424H1267.94C1265.07 56.424 1262.65 54.005 1262.65 51.135C1262.65 48.265 1265.07 45.846 1267.94 45.846H1269.13ZM1269.13 40.926H1267.94C1262.32 40.926 1257.73 45.518 1257.73 51.135C1257.73 56.752 1262.32 61.344 1267.94 61.344H1269.13V62H1267.94C1261.95 62 1257.07 57.121 1257.07 51.135C1257.07 45.149 1261.95 40.27 1267.94 40.27H1269.13V40.926ZM1274.65 40.926H1271.41V40.27H1274.65V33.3H1275.3V40.27H1280.22V33.3H1280.88V40.27H1284.12V40.926H1280.88V45.846H1284.12V46.502H1280.88V62H1280.22V46.502H1275.3V62H1274.65V46.502H1271.41V45.846H1274.65V40.926ZM1280.22 40.926H1275.3V45.846H1280.22V40.926ZM1317.76 33.3V51.709C1317.76 57.613 1312.84 62.492 1306.85 62.492C1300.86 62.492 1295.94 57.654 1295.94 51.709V33.3H1296.6V51.709C1296.6 57.326 1301.19 61.836 1306.85 61.836C1312.51 61.836 1317.1 57.285 1317.1 51.709V33.3H1317.76ZM1312.18 33.3V51.709C1312.18 54.497 1309.76 56.916 1306.85 56.916C1303.94 56.916 1301.52 54.497 1301.52 51.709V33.3H1302.18V51.709C1302.18 54.169 1304.27 56.26 1306.85 56.26C1309.43 56.26 1311.52 54.169 1311.52 51.709V33.3H1312.18ZM1320.78 46.953C1320.78 42.976 1323.98 39.778 1327.96 39.778C1330.91 39.778 1333.45 41.582 1334.56 44.124L1333.94 44.411C1332.96 42.074 1330.62 40.434 1327.96 40.434C1324.35 40.434 1321.44 43.345 1321.44 46.953C1321.44 50.028 1323.53 52.57 1326.4 53.308L1328.2 53.759C1328.9 53.923 1329.39 54.579 1329.39 55.317C1329.39 56.219 1328.69 56.916 1327.79 56.916C1327.09 56.916 1326.52 56.506 1326.27 55.85L1326.89 55.604C1327.01 55.973 1327.34 56.26 1327.79 56.26C1328.32 56.26 1328.73 55.85 1328.73 55.317C1328.73 54.866 1328.49 54.497 1328.04 54.374L1326.19 53.923C1323.08 53.144 1320.78 50.315 1320.78 46.953ZM1321.19 58.187L1321.81 57.9C1322.79 60.237 1325.09 61.836 1327.79 61.836C1331.4 61.836 1334.31 58.925 1334.31 55.317C1334.31 52.242 1332.22 49.7 1329.35 48.962L1327.55 48.511C1326.81 48.306 1326.36 47.691 1326.36 46.953C1326.36 46.051 1327.05 45.354 1327.96 45.354C1328.65 45.354 1329.23 45.805 1329.43 46.42L1328.86 46.666C1328.73 46.297 1328.37 46.01 1327.96 46.01C1327.42 46.01 1327.01 46.42 1327.01 46.953C1327.01 47.404 1327.26 47.773 1327.71 47.896L1329.55 48.347C1332.71 49.126 1334.97 51.955 1334.97 55.317C1334.97 59.294 1331.77 62.492 1327.79 62.492C1324.84 62.492 1322.3 60.729 1321.19 58.187ZM1336.95 51.135C1336.95 44.862 1342.03 39.778 1348.31 39.778C1353.31 39.778 1357.53 42.976 1359.05 47.486L1345.72 55.563C1346.5 56.014 1347.36 56.26 1348.31 56.26C1350.36 56.26 1352.12 55.03 1352.94 53.308L1353.56 53.595C1352.65 55.563 1350.64 56.916 1348.31 56.916C1347.12 56.916 1346.01 56.547 1345.11 55.932L1340.68 58.638C1342.61 60.606 1345.31 61.836 1348.31 61.836C1352.57 61.836 1356.3 59.294 1358.02 55.645L1358.6 55.932C1356.79 59.827 1352.86 62.492 1348.31 62.492C1342.03 62.492 1336.95 57.408 1336.95 51.135ZM1337.61 51.135C1337.61 52.324 1337.81 53.431 1338.14 54.497L1342.57 51.791C1342.53 51.586 1342.53 51.34 1342.53 51.135C1342.53 47.937 1345.11 45.354 1348.31 45.354C1349.5 45.354 1350.64 45.723 1351.55 46.338L1355.93 43.673C1354.01 41.664 1351.3 40.434 1348.31 40.434C1342.4 40.434 1337.61 45.231 1337.61 51.135ZM1338.39 55.112C1338.84 56.219 1339.45 57.244 1340.23 58.146L1344.54 55.522C1343.63 54.743 1342.98 53.677 1342.69 52.488L1338.39 55.112ZM1343.18 51.135V51.422L1350.93 46.707C1350.15 46.256 1349.25 46.01 1348.31 46.01C1345.48 46.01 1343.18 48.306 1343.18 51.135ZM1343.26 52.16C1343.51 53.349 1344.21 54.415 1345.15 55.153L1353.35 50.151C1353.1 48.962 1352.45 47.896 1351.51 47.117L1343.26 52.16ZM1352.12 46.789C1353.02 47.568 1353.68 48.593 1353.92 49.823L1358.27 47.158C1357.82 46.051 1357.16 45.067 1356.43 44.165L1352.12 46.789ZM1384.9 56.424H1382.89C1377.85 56.424 1374.16 52.447 1374.16 47.65C1374.16 42.812 1377.85 38.876 1382.89 38.876H1384.9V39.532H1382.89C1378.26 39.532 1374.82 43.14 1374.82 47.65C1374.82 52.119 1378.26 55.768 1382.89 55.768H1384.9V56.424ZM1384.9 62H1382.89C1374.94 62 1368.59 55.563 1368.59 47.65C1368.59 39.737 1374.94 33.3 1382.89 33.3H1384.9V33.956H1382.89C1375.27 33.956 1369.24 40.065 1369.24 47.65C1369.24 55.235 1375.27 61.344 1382.89 61.344H1384.9V62ZM1397.68 62.492C1391.4 62.492 1386.32 57.408 1386.32 51.135C1386.32 44.862 1391.4 39.778 1397.68 39.778C1403.95 39.778 1409.03 44.862 1409.03 51.135C1409.03 57.408 1403.95 62.492 1397.68 62.492ZM1397.68 61.836C1403.58 61.836 1408.38 57.039 1408.38 51.135C1408.38 45.231 1403.58 40.434 1397.68 40.434C1391.77 40.434 1386.97 45.231 1386.97 51.135C1386.97 57.039 1391.77 61.836 1397.68 61.836ZM1397.68 56.916C1394.48 56.916 1391.89 54.333 1391.89 51.135C1391.89 47.937 1394.48 45.354 1397.68 45.354C1400.87 45.354 1403.46 47.937 1403.46 51.135C1403.46 54.333 1400.87 56.916 1397.68 56.916ZM1397.68 56.26C1400.5 56.26 1402.8 53.964 1402.8 51.135C1402.8 48.306 1400.5 46.01 1397.68 46.01C1394.85 46.01 1392.55 48.306 1392.55 51.135C1392.55 53.964 1394.85 56.26 1397.68 56.26ZM1411.97 62V40.27H1412.63V46.461C1413.53 44.124 1415.29 42.197 1417.55 41.09V40.27H1418.2V40.762C1419.35 40.311 1420.58 40.065 1421.89 40.065C1427.35 40.065 1431.82 44.534 1431.82 49.987V62H1431.16V49.987C1431.16 44.903 1426.98 40.721 1421.89 40.721C1420.58 40.721 1419.35 41.008 1418.2 41.5V47.691C1418.98 46.461 1420.34 45.641 1421.89 45.641C1424.27 45.641 1426.24 47.609 1426.24 49.987V62H1425.58V49.987C1425.58 47.978 1423.9 46.297 1421.89 46.297C1419.89 46.297 1418.2 47.978 1418.2 49.987V62H1417.55V41.828C1414.64 43.386 1412.63 46.461 1412.63 49.987V62H1411.97ZM1437.33 40.926H1434.09V40.27H1437.33V33.3H1437.98V40.27H1442.9V33.3H1443.56V40.27H1446.8V40.926H1443.56V45.846H1446.8V46.502H1443.56V62H1442.9V46.502H1437.98V62H1437.33V46.502H1434.09V45.846H1437.33V40.926ZM1442.9 40.926H1437.98V45.846H1442.9V40.926ZM1448.14 51.135C1448.14 44.862 1453.22 39.778 1459.5 39.778C1464.5 39.778 1468.72 42.976 1470.24 47.486L1456.91 55.563C1457.69 56.014 1458.55 56.26 1459.5 56.26C1461.55 56.26 1463.31 55.03 1464.13 53.308L1464.74 53.595C1463.84 55.563 1461.83 56.916 1459.5 56.916C1458.31 56.916 1457.2 56.547 1456.3 55.932L1451.87 58.638C1453.8 60.606 1456.5 61.836 1459.5 61.836C1463.76 61.836 1467.49 59.294 1469.21 55.645L1469.79 55.932C1467.98 59.827 1464.05 62.492 1459.5 62.492C1453.22 62.492 1448.14 57.408 1448.14 51.135ZM1448.79 51.135C1448.79 52.324 1449 53.431 1449.33 54.497L1453.76 51.791C1453.71 51.586 1453.71 51.34 1453.71 51.135C1453.71 47.937 1456.3 45.354 1459.5 45.354C1460.68 45.354 1461.83 45.723 1462.73 46.338L1467.12 43.673C1465.19 41.664 1462.49 40.434 1459.5 40.434C1453.59 40.434 1448.79 45.231 1448.79 51.135ZM1449.57 55.112C1450.02 56.219 1450.64 57.244 1451.42 58.146L1455.72 55.522C1454.82 54.743 1454.17 53.677 1453.88 52.488L1449.57 55.112ZM1454.37 51.135V51.422L1462.12 46.707C1461.34 46.256 1460.44 46.01 1459.5 46.01C1456.67 46.01 1454.37 48.306 1454.37 51.135ZM1454.45 52.16C1454.7 53.349 1455.4 54.415 1456.34 55.153L1464.54 50.151C1464.29 48.962 1463.64 47.896 1462.69 47.117L1454.45 52.16ZM1463.31 46.789C1464.21 47.568 1464.87 48.593 1465.11 49.823L1469.46 47.158C1469.01 46.051 1468.35 45.067 1467.61 44.165L1463.31 46.789ZM1476.75 40.27L1480.32 45.682L1483.93 40.27H1484.75L1480.73 46.297L1483.52 50.52L1490.32 40.27H1491.14L1483.93 51.135L1491.14 62H1490.32L1483.52 51.75L1480.73 55.973L1484.75 62H1483.93L1480.36 56.588L1476.75 62H1475.93L1479.95 55.973L1477.12 51.75L1470.36 62H1469.54L1476.71 51.135L1469.54 40.27H1470.36L1477.12 50.52L1479.91 46.297L1475.93 40.27H1476.75ZM1480.32 55.358L1483.11 51.135L1480.32 46.912L1477.53 51.135L1480.32 55.358ZM1495.22 40.926H1491.98V40.27H1495.22V33.3H1495.88V40.27H1500.8V33.3H1501.45V40.27H1504.69V40.926H1501.45V45.846H1504.69V46.502H1501.45V62H1500.8V46.502H1495.88V62H1495.22V46.502H1491.98V45.846H1495.22V40.926ZM1500.8 40.926H1495.88V45.846H1500.8V40.926ZM1515.58 41.746C1515.58 36.826 1519.6 32.849 1524.68 32.849C1528.62 32.849 1531.94 35.268 1533.21 38.671L1532.63 38.917C1531.44 35.719 1528.33 33.423 1524.68 33.464C1520.01 33.505 1516.19 37.154 1516.23 41.746C1516.27 45.6 1518.9 48.88 1522.55 49.7L1525.5 50.356C1526.98 50.684 1528.08 52.037 1528.08 53.554C1528.08 55.399 1526.52 56.875 1524.56 56.875C1522.88 56.875 1521.48 55.768 1521.11 54.292L1521.73 54.005C1521.97 55.276 1523.12 56.301 1524.56 56.26C1526.16 56.219 1527.39 55.03 1527.43 53.554C1527.47 52.324 1526.57 51.258 1525.29 50.971L1522.42 50.356C1518.41 49.495 1515.58 45.887 1515.58 41.746ZM1515.99 56.629L1516.6 56.342C1517.75 59.581 1520.87 61.877 1524.56 61.836C1529.23 61.795 1533.04 58.146 1533 53.554C1532.96 49.7 1530.34 46.42 1526.69 45.6L1523.74 44.944C1522.26 44.616 1521.15 43.263 1521.15 41.746C1521.15 39.901 1522.71 38.425 1524.68 38.425C1526.36 38.425 1527.75 39.491 1528.08 40.967L1527.51 41.254C1527.26 39.983 1526.07 38.999 1524.68 39.04C1523.08 39.081 1521.85 40.27 1521.81 41.746C1521.77 42.976 1522.67 44.042 1523.94 44.329L1526.81 44.944C1530.83 45.805 1533.66 49.413 1533.66 53.554C1533.66 58.474 1529.64 62.451 1524.56 62.451C1520.58 62.451 1517.26 60.032 1515.99 56.629ZM1538.46 40.926H1535.22V40.27H1538.46V33.3H1539.12V40.27H1544.04V33.3H1544.7V40.27H1547.93V40.926H1544.7V45.846H1547.93V46.502H1544.7V62H1544.04V46.502H1539.12V62H1538.46V46.502H1535.22V45.846H1538.46V40.926ZM1544.04 40.926H1539.12V45.846H1544.04V40.926ZM1566.42 42.115V60.155C1569.16 58.474 1571.34 55.071 1571.34 51.135C1571.34 47.199 1569.16 43.796 1566.42 42.115ZM1560.63 39.778C1562.48 39.778 1564.2 40.229 1565.76 41.008V40.27H1566.42V41.377C1568.71 42.648 1570.47 44.944 1571.34 47.322V40.27H1571.99V62H1571.34V54.907C1570.52 57.244 1568.71 59.663 1566.42 60.934V62H1565.76V61.262C1564.2 62.041 1562.48 62.492 1560.63 62.492C1554.36 62.492 1549.28 57.408 1549.28 51.135C1549.28 44.862 1554.36 39.778 1560.63 39.778ZM1560.63 61.836C1562.48 61.836 1564.24 61.385 1565.76 60.565V53.841C1564.78 55.645 1562.85 56.916 1560.63 56.916C1557.44 56.916 1554.85 54.333 1554.85 51.135C1554.85 47.937 1557.44 45.354 1560.63 45.354C1562.85 45.354 1564.78 46.625 1565.76 48.47V41.746C1564.24 40.926 1562.48 40.434 1560.63 40.434C1554.73 40.434 1549.93 45.231 1549.93 51.135C1549.93 57.039 1554.73 61.836 1560.63 61.836ZM1560.63 56.26C1563.5 56.26 1565.76 53.964 1565.76 51.135C1565.76 48.306 1563.5 46.01 1560.63 46.01C1557.81 46.01 1555.51 48.306 1555.51 51.135C1555.51 53.964 1557.81 56.26 1560.63 56.26ZM1578.22 40.926H1574.98V40.27H1578.22V33.3H1578.88V40.27H1583.8V33.3H1584.45V40.27H1587.69V40.926H1584.45V45.846H1587.69V46.502H1584.45V62H1583.8V46.502H1578.88V62H1578.22V46.502H1574.98V45.846H1578.22V40.926ZM1583.8 40.926H1578.88V45.846H1583.8V40.926ZM1589.04 51.135C1589.04 44.862 1594.12 39.778 1600.39 39.778C1605.4 39.778 1609.62 42.976 1611.14 47.486L1597.81 55.563C1598.59 56.014 1599.45 56.26 1600.39 56.26C1602.44 56.26 1604.21 55.03 1605.03 53.308L1605.64 53.595C1604.74 55.563 1602.73 56.916 1600.39 56.916C1599.2 56.916 1598.1 56.547 1597.2 55.932L1592.77 58.638C1594.69 60.606 1597.4 61.836 1600.39 61.836C1604.66 61.836 1608.39 59.294 1610.11 55.645L1610.68 55.932C1608.88 59.827 1604.94 62.492 1600.39 62.492C1594.12 62.492 1589.04 57.408 1589.04 51.135ZM1589.69 51.135C1589.69 52.324 1589.9 53.431 1590.23 54.497L1594.65 51.791C1594.61 51.586 1594.61 51.34 1594.61 51.135C1594.61 47.937 1597.2 45.354 1600.39 45.354C1601.58 45.354 1602.73 45.723 1603.63 46.338L1608.02 43.673C1606.09 41.664 1603.39 40.434 1600.39 40.434C1594.49 40.434 1589.69 45.231 1589.69 51.135ZM1590.47 55.112C1590.92 56.219 1591.54 57.244 1592.32 58.146L1596.62 55.522C1595.72 54.743 1595.06 53.677 1594.78 52.488L1590.47 55.112ZM1595.27 51.135V51.422L1603.02 46.707C1602.24 46.256 1601.34 46.01 1600.39 46.01C1597.56 46.01 1595.27 48.306 1595.27 51.135ZM1595.35 52.16C1595.6 53.349 1596.29 54.415 1597.24 55.153L1605.44 50.151C1605.19 48.962 1604.53 47.896 1603.59 47.117L1595.35 52.16ZM1604.21 46.789C1605.11 47.568 1605.76 48.593 1606.01 49.823L1610.36 47.158C1609.91 46.051 1609.25 45.067 1608.51 44.165L1604.21 46.789ZM1640.27 55.522L1637.64 62H1636.99L1629.98 44.698L1626.94 62H1626.29L1629.53 43.55L1625.88 34.448L1621.04 62H1620.38L1625.43 33.3H1626.08L1629.73 42.402L1631.33 33.3H1631.99L1640.27 53.882L1648.55 33.3H1649.21L1650.81 42.361L1654.45 33.3H1655.11L1660.15 62H1659.5L1654.66 34.448L1651.01 43.509L1654.25 62H1653.59L1650.56 44.616L1643.55 62H1642.89L1640.27 55.522ZM1643.22 61.18L1650.35 43.468L1648.76 34.448L1640.6 54.702L1643.22 61.18ZM1639.94 54.702L1631.78 34.448L1630.18 43.55L1637.32 61.18L1639.94 54.702ZM1678.52 42.115V60.155C1681.27 58.474 1683.44 55.071 1683.44 51.135C1683.44 47.199 1681.27 43.796 1678.52 42.115ZM1672.74 39.778C1674.59 39.778 1676.31 40.229 1677.87 41.008V40.27H1678.52V41.377C1680.82 42.648 1682.58 44.944 1683.44 47.322V40.27H1684.1V62H1683.44V54.907C1682.62 57.244 1680.82 59.663 1678.52 60.934V62H1677.87V61.262C1676.31 62.041 1674.59 62.492 1672.74 62.492C1666.47 62.492 1661.39 57.408 1661.39 51.135C1661.39 44.862 1666.47 39.778 1672.74 39.778ZM1672.74 61.836C1674.59 61.836 1676.35 61.385 1677.87 60.565V53.841C1676.88 55.645 1674.96 56.916 1672.74 56.916C1669.55 56.916 1666.96 54.333 1666.96 51.135C1666.96 47.937 1669.55 45.354 1672.74 45.354C1674.96 45.354 1676.88 46.625 1677.87 48.47V41.746C1676.35 40.926 1674.59 40.434 1672.74 40.434C1666.84 40.434 1662.04 45.231 1662.04 51.135C1662.04 57.039 1666.84 61.836 1672.74 61.836ZM1672.74 56.26C1675.61 56.26 1677.87 53.964 1677.87 51.135C1677.87 48.306 1675.61 46.01 1672.74 46.01C1669.91 46.01 1667.62 48.306 1667.62 51.135C1667.62 53.964 1669.91 56.26 1672.74 56.26ZM1688.28 62V40.27H1688.94V46.461C1689.84 44.124 1691.6 42.197 1693.86 41.09V40.27H1694.51V40.762C1695.66 40.311 1696.89 40.065 1698.2 40.065C1703.66 40.065 1708.13 44.534 1708.13 49.987V62H1707.47V49.987C1707.47 44.903 1703.29 40.721 1698.2 40.721C1696.89 40.721 1695.66 41.008 1694.51 41.5V47.691C1695.29 46.461 1696.65 45.641 1698.2 45.641C1700.58 45.641 1702.55 47.609 1702.55 49.987V62H1701.89V49.987C1701.89 47.978 1700.21 46.297 1698.2 46.297C1696.19 46.297 1694.51 47.978 1694.51 49.987V62H1693.86V41.828C1690.95 43.386 1688.94 46.461 1688.94 49.987V62H1688.28ZM1727.89 42.115V60.155C1730.64 58.474 1732.81 55.071 1732.81 51.135C1732.81 47.199 1730.64 43.796 1727.89 42.115ZM1722.11 39.778C1723.96 39.778 1725.68 40.229 1727.24 41.008V40.27H1727.89V41.377C1730.19 42.648 1731.95 44.944 1732.81 47.322V40.27H1733.47V62H1732.81V54.907C1731.99 57.244 1730.19 59.663 1727.89 60.934V62H1727.24V61.262C1725.68 62.041 1723.96 62.492 1722.11 62.492C1715.84 62.492 1710.76 57.408 1710.76 51.135C1710.76 44.862 1715.84 39.778 1722.11 39.778ZM1722.11 61.836C1723.96 61.836 1725.72 61.385 1727.24 60.565V53.841C1726.25 55.645 1724.33 56.916 1722.11 56.916C1718.91 56.916 1716.33 54.333 1716.33 51.135C1716.33 47.937 1718.91 45.354 1722.11 45.354C1724.33 45.354 1726.25 46.625 1727.24 48.47V41.746C1725.72 40.926 1723.96 40.434 1722.11 40.434C1716.21 40.434 1711.41 45.231 1711.41 51.135C1711.41 57.039 1716.21 61.836 1722.11 61.836ZM1722.11 56.26C1724.98 56.26 1727.24 53.964 1727.24 51.135C1727.24 48.306 1724.98 46.01 1722.11 46.01C1719.28 46.01 1716.99 48.306 1716.99 51.135C1716.99 53.964 1719.28 56.26 1722.11 56.26ZM1736.46 51.135C1736.46 44.862 1741.55 39.778 1747.82 39.778C1749.66 39.778 1751.39 40.229 1752.94 41.008V40.27H1753.6V41.377C1755.9 42.648 1757.66 44.944 1758.52 47.322V40.27H1759.18V60.155C1759.18 66.428 1754.13 71.512 1747.82 71.512C1743.92 71.512 1740.48 69.503 1738.39 66.51L1738.96 66.182C1740.93 69.011 1744.17 70.856 1747.82 70.856C1753.8 70.856 1758.52 66.1 1758.52 60.155V54.907C1757.7 57.285 1755.85 59.663 1753.52 60.934C1753.11 63.722 1750.77 65.936 1747.82 65.936C1745.97 65.936 1744.29 65.034 1743.23 63.722L1743.8 63.394C1744.7 64.501 1746.22 65.28 1747.82 65.28C1750.28 65.28 1752.29 63.599 1752.82 61.344C1751.3 62.041 1749.58 62.492 1747.82 62.492C1741.55 62.492 1736.46 57.408 1736.46 51.135ZM1737.12 51.135C1737.12 57.039 1741.91 61.836 1747.82 61.836C1749.66 61.836 1751.39 61.385 1752.9 60.565C1752.94 60.278 1752.94 59.745 1752.94 59.212V53.841C1751.96 55.645 1750.03 56.916 1747.82 56.916C1744.62 56.916 1742.04 54.333 1742.04 51.135C1742.04 47.937 1744.62 45.354 1747.82 45.354C1750.03 45.354 1751.96 46.625 1752.94 48.47V41.746C1751.43 40.926 1749.66 40.434 1747.82 40.434C1741.91 40.434 1737.12 45.231 1737.12 51.135ZM1742.69 51.135C1742.69 53.964 1744.99 56.26 1747.82 56.26C1750.69 56.26 1752.94 53.964 1752.94 51.135C1752.94 48.306 1750.69 46.01 1747.82 46.01C1744.99 46.01 1742.69 48.306 1742.69 51.135ZM1753.6 42.115V60.155C1756.35 58.474 1758.52 55.071 1758.52 51.135C1758.52 47.199 1756.35 43.796 1753.6 42.115ZM1762.09 51.135C1762.09 44.862 1767.17 39.778 1773.44 39.778C1778.44 39.778 1782.67 42.976 1784.18 47.486L1770.86 55.563C1771.64 56.014 1772.5 56.26 1773.44 56.26C1775.49 56.26 1777.26 55.03 1778.08 53.308L1778.69 53.595C1777.79 55.563 1775.78 56.916 1773.44 56.916C1772.25 56.916 1771.15 56.547 1770.24 55.932L1765.82 58.638C1767.74 60.606 1770.45 61.836 1773.44 61.836C1777.71 61.836 1781.44 59.294 1783.16 55.645L1783.73 55.932C1781.93 59.827 1777.99 62.492 1773.44 62.492C1767.17 62.492 1762.09 57.408 1762.09 51.135ZM1762.74 51.135C1762.74 52.324 1762.95 53.431 1763.27 54.497L1767.7 51.791C1767.66 51.586 1767.66 51.34 1767.66 51.135C1767.66 47.937 1770.24 45.354 1773.44 45.354C1774.63 45.354 1775.78 45.723 1776.68 46.338L1781.07 43.673C1779.14 41.664 1776.44 40.434 1773.44 40.434C1767.54 40.434 1762.74 45.231 1762.74 51.135ZM1763.52 55.112C1763.97 56.219 1764.59 57.244 1765.37 58.146L1769.67 55.522C1768.77 54.743 1768.11 53.677 1767.83 52.488L1763.52 55.112ZM1768.32 51.135V51.422L1776.07 46.707C1775.29 46.256 1774.39 46.01 1773.44 46.01C1770.61 46.01 1768.32 48.306 1768.32 51.135ZM1768.4 52.16C1768.65 53.349 1769.34 54.415 1770.29 55.153L1778.49 50.151C1778.24 48.962 1777.58 47.896 1776.64 47.117L1768.4 52.16ZM1777.26 46.789C1778.16 47.568 1778.81 48.593 1779.06 49.823L1783.41 47.158C1782.95 46.051 1782.3 45.067 1781.56 44.165L1777.26 46.789ZM1786.18 62V40.27H1786.83V45.969C1787.74 43.714 1789.54 41.869 1791.75 40.885V40.27H1792.41V40.639C1793.35 40.311 1794.42 40.106 1795.48 40.106C1797.86 40.106 1800.04 41.008 1801.68 42.484C1803.32 41.008 1805.49 40.106 1807.87 40.106C1812.99 40.106 1817.17 44.288 1817.17 49.413V62H1816.52V49.413C1816.52 44.657 1812.62 40.762 1807.87 40.762C1805.69 40.762 1803.68 41.582 1802.17 42.935C1803.4 44.206 1804.26 45.805 1804.63 47.609C1805.24 46.461 1806.47 45.682 1807.87 45.682C1809.92 45.682 1811.6 47.363 1811.6 49.413V62H1810.94V49.413C1810.94 47.732 1809.55 46.338 1807.87 46.338C1806.19 46.338 1804.79 47.732 1804.79 49.413V62H1804.14V49.413C1804.14 47.076 1803.19 44.944 1801.68 43.386C1800.16 44.944 1799.22 47.076 1799.22 49.413V62H1798.56V49.413C1798.56 47.732 1797.17 46.338 1795.48 46.338C1793.8 46.338 1792.41 47.732 1792.41 49.413V62H1791.75V41.623C1788.84 43.017 1786.83 46.01 1786.83 49.413V62H1786.18ZM1792.41 41.336V47.322C1793.07 46.338 1794.21 45.682 1795.48 45.682C1796.88 45.682 1798.11 46.461 1798.72 47.609C1799.09 45.805 1799.95 44.206 1801.18 42.935C1799.67 41.582 1797.66 40.762 1795.48 40.762C1794.42 40.762 1793.35 40.967 1792.41 41.336ZM1819.82 51.135C1819.82 44.862 1824.91 39.778 1831.18 39.778C1836.18 39.778 1840.4 42.976 1841.92 47.486L1828.6 55.563C1829.37 56.014 1830.24 56.26 1831.18 56.26C1833.23 56.26 1834.99 55.03 1835.81 53.308L1836.43 53.595C1835.52 55.563 1833.52 56.916 1831.18 56.916C1829.99 56.916 1828.88 56.547 1827.98 55.932L1823.55 58.638C1825.48 60.606 1828.19 61.836 1831.18 61.836C1835.44 61.836 1839.17 59.294 1840.9 55.645L1841.47 55.932C1839.67 59.827 1835.73 62.492 1831.18 62.492C1824.91 62.492 1819.82 57.408 1819.82 51.135ZM1820.48 51.135C1820.48 52.324 1820.68 53.431 1821.01 54.497L1825.44 51.791C1825.4 51.586 1825.4 51.34 1825.4 51.135C1825.4 47.937 1827.98 45.354 1831.18 45.354C1832.37 45.354 1833.52 45.723 1834.42 46.338L1838.8 43.673C1836.88 41.664 1834.17 40.434 1831.18 40.434C1825.27 40.434 1820.48 45.231 1820.48 51.135ZM1821.26 55.112C1821.71 56.219 1822.32 57.244 1823.1 58.146L1827.41 55.522C1826.5 54.743 1825.85 53.677 1825.56 52.488L1821.26 55.112ZM1826.05 51.135V51.422L1833.8 46.707C1833.02 46.256 1832.12 46.01 1831.18 46.01C1828.35 46.01 1826.05 48.306 1826.05 51.135ZM1826.14 52.16C1826.38 53.349 1827.08 54.415 1828.02 55.153L1836.22 50.151C1835.98 48.962 1835.32 47.896 1834.38 47.117L1826.14 52.16ZM1834.99 46.789C1835.89 47.568 1836.55 48.593 1836.8 49.823L1841.14 47.158C1840.69 46.051 1840.03 45.067 1839.3 44.165L1834.99 46.789ZM1843.91 62V40.27H1844.57V46.461C1845.47 44.124 1847.23 42.197 1849.49 41.09V40.27H1850.15V40.762C1851.29 40.311 1852.52 40.065 1853.84 40.065C1859.29 40.065 1863.76 44.534 1863.76 49.987V62H1863.1V49.987C1863.1 44.903 1858.92 40.721 1853.84 40.721C1852.52 40.721 1851.29 41.008 1850.15 41.5V47.691C1850.92 46.461 1852.28 45.641 1853.84 45.641C1856.21 45.641 1858.18 47.609 1858.18 49.987V62H1857.53V49.987C1857.53 47.978 1855.84 46.297 1853.84 46.297C1851.83 46.297 1850.15 47.978 1850.15 49.987V62H1849.49V41.828C1846.58 43.386 1844.57 46.461 1844.57 49.987V62H1843.91ZM1869.27 40.926H1866.03V40.27H1869.27V33.3H1869.92V40.27H1874.84V33.3H1875.5V40.27H1878.74V40.926H1875.5V45.846H1878.74V46.502H1875.5V62H1874.84V46.502H1869.92V62H1869.27V46.502H1866.03V45.846H1869.27V40.926ZM1874.84 40.926H1869.92V45.846H1874.84V40.926ZM1890.85 62V33.3H1898.89C1904.1 33.3 1908.32 37.523 1908.32 42.73C1908.32 44.534 1907.83 46.215 1906.92 47.65C1907.83 49.044 1908.32 50.766 1908.32 52.57C1908.32 57.777 1904.1 62 1898.89 62H1890.85ZM1891.51 61.344H1896.43V56.424H1891.51V61.344ZM1891.51 55.768H1896.43V49.372H1891.51V55.768ZM1891.51 48.716H1896.43V46.584H1891.51V48.716ZM1891.51 45.928H1896.43V39.532H1891.51V45.928ZM1891.51 38.876H1896.43V33.956H1891.51V38.876ZM1897.08 61.344H1898.89C1903.73 61.344 1907.66 57.408 1907.66 52.57C1907.66 50.725 1907.09 49.044 1906.15 47.65C1907.09 46.256 1907.66 44.575 1907.66 42.73C1907.66 37.892 1903.73 33.956 1898.89 33.956H1897.08V38.876H1898.89C1901.02 38.876 1902.74 40.598 1902.74 42.73C1902.74 44.862 1901.02 46.584 1898.89 46.584H1897.08V48.716H1898.89C1901.02 48.716 1902.74 50.438 1902.74 52.57C1902.74 54.702 1901.02 56.424 1898.89 56.424H1897.08V61.344ZM1897.08 55.768H1898.89C1900.65 55.768 1902.09 54.333 1902.09 52.57C1902.09 50.807 1900.65 49.372 1898.89 49.372H1897.08V55.768ZM1897.08 45.928H1898.89C1900.65 45.928 1902.09 44.493 1902.09 42.73C1902.09 40.967 1900.65 39.532 1898.89 39.532H1897.08V45.928ZM1921.99 62.492C1915.71 62.492 1910.63 57.408 1910.63 51.135C1910.63 44.862 1915.71 39.778 1921.99 39.778C1928.26 39.778 1933.34 44.862 1933.34 51.135C1933.34 57.408 1928.26 62.492 1921.99 62.492ZM1921.99 61.836C1927.89 61.836 1932.69 57.039 1932.69 51.135C1932.69 45.231 1927.89 40.434 1921.99 40.434C1916.08 40.434 1911.29 45.231 1911.29 51.135C1911.29 57.039 1916.08 61.836 1921.99 61.836ZM1921.99 56.916C1918.79 56.916 1916.21 54.333 1916.21 51.135C1916.21 47.937 1918.79 45.354 1921.99 45.354C1925.19 45.354 1927.77 47.937 1927.77 51.135C1927.77 54.333 1925.19 56.916 1921.99 56.916ZM1921.99 56.26C1924.82 56.26 1927.11 53.964 1927.11 51.135C1927.11 48.306 1924.82 46.01 1921.99 46.01C1919.16 46.01 1916.86 48.306 1916.86 51.135C1916.86 53.964 1919.16 56.26 1921.99 56.26ZM1936.28 62V40.27H1936.94V62H1936.28ZM1942.52 40.27V62H1941.86V40.27H1942.52ZM1941.86 38.138V31.25H1942.52V38.138H1941.86ZM1936.94 31.25V38.138H1936.28V31.25H1936.94ZM1947.35 31.25V62H1946.69V31.25H1947.35ZM1952.93 31.25V62H1952.27V31.25H1952.93ZM1955.87 51.135C1955.87 44.862 1960.96 39.778 1967.23 39.778C1972.23 39.778 1976.46 42.976 1977.97 47.486L1964.65 55.563C1965.43 56.014 1966.29 56.26 1967.23 56.26C1969.28 56.26 1971.04 55.03 1971.86 53.308L1972.48 53.595C1971.58 55.563 1969.57 56.916 1967.23 56.916C1966.04 56.916 1964.94 56.547 1964.03 55.932L1959.61 58.638C1961.53 60.606 1964.24 61.836 1967.23 61.836C1971.5 61.836 1975.23 59.294 1976.95 55.645L1977.52 55.932C1975.72 59.827 1971.78 62.492 1967.23 62.492C1960.96 62.492 1955.87 57.408 1955.87 51.135ZM1956.53 51.135C1956.53 52.324 1956.74 53.431 1957.06 54.497L1961.49 51.791C1961.45 51.586 1961.45 51.34 1961.45 51.135C1961.45 47.937 1964.03 45.354 1967.23 45.354C1968.42 45.354 1969.57 45.723 1970.47 46.338L1974.86 43.673C1972.93 41.664 1970.22 40.434 1967.23 40.434C1961.33 40.434 1956.53 45.231 1956.53 51.135ZM1957.31 55.112C1957.76 56.219 1958.38 57.244 1959.15 58.146L1963.46 55.522C1962.56 54.743 1961.9 53.677 1961.61 52.488L1957.31 55.112ZM1962.11 51.135V51.422L1969.86 46.707C1969.08 46.256 1968.17 46.01 1967.23 46.01C1964.4 46.01 1962.11 48.306 1962.11 51.135ZM1962.19 52.16C1962.43 53.349 1963.13 54.415 1964.07 55.153L1972.27 50.151C1972.03 48.962 1971.37 47.896 1970.43 47.117L1962.19 52.16ZM1971.04 46.789C1971.95 47.568 1972.6 48.593 1972.85 49.823L1977.19 47.158C1976.74 46.051 1976.09 45.067 1975.35 44.165L1971.04 46.789ZM1985.54 62V42.689C1983.33 44.042 1980.62 46.83 1980.62 51.709V62H1979.97V40.27H1980.62V47.732C1981.65 44.903 1983.25 43.304 1985.54 41.951V40.27H1986.2V41.582C1987.84 40.762 1989.6 40.352 1991.32 40.352V41.008C1989.6 41.008 1987.8 41.459 1986.2 42.32V49.044C1987.14 47.199 1989.11 45.928 1991.32 45.928V46.584C1988.45 46.584 1986.2 48.88 1986.2 51.709V62H1985.54Z" fill="white"/>
</g>
<defs>
<clipPath id="clip0_443_857">
<rect width="1940" height="343" fill="white"/>
</clipPath>
</defs>
</svg>
